<?xml version="1.0" encoding="UTF-8"?>
<svg id="Layer_1" data-name="Layer 1" xmlns="http://www.w3.org/2000/svg" width="18.312521cm" height="18.312517cm" viewBox="0 0 519.095093 519.094971">
  <g id="Objects">
    <g>
      <path d="M519.095093,81.092896v356.919067c0,44.707031-36.375977,81.083008-81.093018,81.083008H81.083008c-44.706055,0-81.083008-36.375977-81.083008-81.083008V81.093018C0,36.375977,36.375977,0,81.083008,0h356.918945c44.717163,0,81.09314,36.375977,81.09314,81.092896Z" fill="#2b60f7"/>
      <path d="M267.359131,278.261963c-4.379028,4.060059-11.245972,4.062012-15.630981,0L106.934082,144.093994c-2.06604-1.915039-.712036-5.369995,2.10498-5.369995h301.008057c2.817017,0,4.171021,3.454956,2.10498,5.369995l-144.792969,134.167969ZM206.362183,262.896973l-111.379028,103.203979c-1.983032,1.837036-5.203003.43103-5.203003-2.271973v-208.562012c0-2.703003,3.219971-4.109009,5.203003-2.271973l111.379028,103.204956c1.949951,1.807007,1.949951,4.890015,0,6.697021ZM217.651123,272.409912c1.75-1.621948,4.454956-1.621948,6.204956,0l17.912964,16.598022c4.983032,4.616943,11.379028,6.926025,17.772949,6.926025,6.395996,0,12.791016-2.30896,17.774048-6.926025l17.911987-16.598022c1.75-1.621948,4.454956-1.621948,6.204956,0l110.717041,102.592041c2.06604,1.915039.71106,5.369995-2.10498,5.369995H109.038086c-2.817017,0-4.171997-3.454956-2.10498-5.369995l110.718018-102.592041ZM312.723145,256.200928l111.379028-103.206055c1.983032-1.837036,5.203003-.43103,5.203003,2.271973v208.562988c0,2.703003-3.219971,4.109009-5.203003,2.271973l-111.379028-103.204956c-1.948975-1.805908-1.948975-4.889893,0-6.695923Z" fill="#fff"/>
    </g>
  </g>
</svg>