<?xml version="1.0" encoding="UTF-8"?>
<svg id="Layer_1" data-name="Layer 1" xmlns="http://www.w3.org/2000/svg" width="1802" height="405.191406" viewBox="0 0 1802 405.191406">
  <g id="Icon">
    <path d="M261.457665,134.352076c-41.169116-2.16672-91.92067,1.121394-131.353018,15.900833-11.960289,4.482814-37.315716,16.36937-12.868756,28.556926,35.981999,17.938304,83.868787,13.954759,119.071572,36.90261,30.243093,19.714952,24.626286,56.335815,3.191844,81.857095-44.230967,52.663804-143.989662,63.13407-203.062212,53.136337-12.194004-2.063771-24.95583-5.157249-36.153308-11.216045v12.189082c0,.68308,1.115049,5.043911,1.421653,6.054727,7.351478,24.234456,34.867814,26.079907,53.339316,27.535357,49.958527,3.936321,105.329129,2.932697,155.415675.573593,24.906251-1.173122,66.328691,1.509577,71.426515-36.549881l.037246-212.789317c-.345824-1.509359-18.073632-2.025411-20.466529-2.151318Z" fill="#fff"/>
    <path d="M8.084936,322.27188c34.212302,1.964964,72.518871-4.349206,105.459615-14.936224,16.579089-5.328491,50.082353-18.312974,60.556979-34.490977,6.845198-10.572124.929187-14.590543-7.148843-18.232039-20.071618-9.048307-45.523245-12.546533-66.749008-18.277084-28.26632-7.631362-79.478892-20.995238-66.754682-68.55403,12.25345-45.799581,81.58689-57.221451,115.970747-60.177179,27.631898-2.375306,59.271114-2.157566,86.738487,1.852062,14.760676,2.154805,29.601271,5.941607,43.207061,13.008022-7.845425-33.513654-40.112897-39.311481-65.351405-42.215045-15.532244-1.786892-30.886888-1.942369-46.453912-2.36419-34.186032-.926176-70.983505-1.815009-104.947662,2.364553-24.171806,2.974545-50.396727,10.403788-60.048849,39.846495-3.432959,10.4715-2.176818,22.479459-2.256367,33.608538-.039466,5.537586.009497,11.006296.000247,16.596192-.083373,50.247159.249132,100.578886-.307344,150.770974,2.327284.540972,5.612984,1.057968,8.084936,1.199931Z" fill="#fff"/>
    <path d="M217.544649,70.738063c7.773645.94216,15.54507,2.509568,23.226216,4.159728.849761.386875.715082-.903.748381-1.486982.665749-11.658863,0-25.001741,0-36.86454,0-3.046762-4.109931-6.325649-6.214229-7.543307-14.225166-8.231691-42.615559-9.784933-58.658152-10.566494-29.70413-1.447096-60.629991-2.029189-90.314388,1.16553-9.619932,1.035337-36.539708,4.848039-43.39169,11.904174-.705955.727071-2.78756,3.617267-2.78756,4.445507v38.945602l21.954782-4.160527c50.88722-2.887725,104.679167-6.150047,155.436641.001308ZM57.816901,30.897634l9.584166-2.378103.511706,35.08346-10.095872,1.186273V30.897634Z" fill="#fff"/>
  </g>
  <text transform="translate(335.208496 219.384277)" fill="#fff" font-family="SpaceGrotesk-SemiBold, &apos;Space Grotesk&apos;" font-size="258.101685" font-weight="600"><tspan x="0" y="0">SuppVisuals</tspan></text>
  <text transform="translate(343.173828 383.524902)" fill="#fff" font-family="Sora-Light, Sora" font-size="78.788933" font-weight="300"><tspan x="0" y="0">Photoreal </tspan><tspan x="418.369141" y="0">3</tspan><tspan x="468.006348" y="0">D Supplement Mockups</tspan></text>
</svg>