<?xml version="1.0" encoding="UTF-8"?>
<svg id="Layer_1" data-name="Layer 1" xmlns="http://www.w3.org/2000/svg" width="1920" height="1080" viewBox="0 0 1920 1080">
  <g id="Icon">
    <path d="M489.204865,489.762806c-30.306397-1.595018-67.666849.825507-96.694736,11.705303-8.804495,3.299997-27.46974,12.050214-9.473257,21.02201,26.487932,13.205175,61.739504,10.272712,87.653822,27.165634,22.263271,14.513044,18.128492,41.471272,2.349657,60.258609-32.560361,38.768143-105.997125,46.475766-149.483027,39.115996-8.976543-1.519233-18.371085-3.796478-26.61404-8.256624v8.972919c0,.502845.820836,3.713045,1.046542,4.457151,5.411746,17.840049,25.667732,19.198567,39.265417,20.269988,36.77667,2.897699,77.537406,2.158887,114.408316.422247,18.334587-.863587,48.827468,1.111266,52.5802-26.905975l.027419-156.643578c-.254576-1.111106-13.304796-1.490994-15.066312-1.58368Z" fill="#fff"/>
    <path d="M302.686052,628.098841c25.18518,1.446496,53.384331-3.201642,77.633462-10.995212,12.204597-3.922537,36.867823-13.480986,44.578656-25.390326,5.039052-7.782606.684015-10.74074-5.262578-13.421406-14.775601-6.660857-33.511663-9.236055-49.136882-13.454565-20.808082-5.617782-58.507909-15.455518-49.141058-50.465638,9.020304-33.715087,60.059699-42.123227,85.371169-44.299069,20.341056-1.748567,43.632075-1.588279,63.852016,1.363384,10.865983,1.586247,21.790798,4.373878,31.806619,9.575778-5.775362-24.670875-29.528868-28.938911-48.108044-31.076352-11.433968-1.31541-22.737197-1.429863-34.196768-1.740384-25.165842-.681799-52.254081-1.336108-77.256591,1.740652-17.79393,2.189694-37.099248,7.658686-44.204599,29.332758-2.527152,7.708532-1.602451,16.548119-1.661011,24.740723-.029053,4.07646.006991,8.102219.000182,12.217187-.061374,36.989144.183397,74.040543-.22625,110.989147,1.713216.398233,4.131964.778817,5.951677.883322Z" fill="#fff"/>
    <path d="M456.878562,442.933733c5.722522.693565,11.44341,1.847403,17.097839,3.062159.625546.284796.526403-.664738.550916-1.094633.490087-8.582602,0-18.404882,0-27.137609,0-2.242855-3.025501-4.656588-4.574568-5.55296-10.471771-6.05971-31.371188-7.203119-43.180846-7.778461-21.866517-1.065271-44.632404-1.493775-66.484395.857998-7.081655.762157-26.898487,3.568855-31.942532,8.763186-.519685.535229-2.052046,2.662829-2.052046,3.272533v28.669571l16.161881-3.062747c37.460322-2.125782,77.05894-4.52732,114.42375.000963ZM339.29594,413.60544l7.055326-1.750626.37669,25.826478-7.432016.873267v-24.949119Z" fill="#fff"/>
  </g>
  <g>
    <path d="M602.395996,555.018555c-10.135254,0-19.094727-1.805176-26.884766-5.415039-7.790039-3.610352-13.902832-8.834961-18.334961-15.675293-4.435547-6.839844-6.650391-15.199707-6.650391-25.07959v-4.94043h22.610352v4.94043c0,8.739746,2.659668,15.265137,7.97998,19.569824,5.319824,4.307617,12.412109,6.459961,21.279785,6.459961,8.992676,0,15.77002-1.834473,20.330078-5.510254,4.560059-3.671875,6.839844-8.421875,6.839844-14.25,0-3.924316-1.077637-7.125-3.22998-9.594727-2.155273-2.470215-5.290039-4.464844-9.404785-5.984863-4.117676-1.52002-9.090332-2.975098-14.915039-4.370117l-5.700195-1.140137c-8.739746-2.024414-16.310059-4.589844-22.70459-7.694824-6.397949-3.102539-11.305176-7.125-14.725098-12.064941s-5.130371-11.400391-5.130371-19.380371,1.900391-14.819824,5.700195-20.52002c3.799805-5.699707,9.182617-10.069824,16.149902-13.109863,6.964844-3.040039,15.134766-4.560059,24.510254-4.560059,9.37207,0,17.732422,1.585449,25.080078,4.75,7.344727,3.167969,13.139648,7.917969,17.384766,14.25,4.242188,6.335449,6.365234,14.25,6.365234,23.75v6.27002h-22.610352v-6.27002c0-5.444336-1.077637-9.814453-3.22998-13.109863-2.155273-3.29248-5.195312-5.700195-9.119629-7.220215-3.927734-1.519531-8.550293-2.279785-13.870117-2.279785-7.855469,0-13.807617,1.52002-17.860352,4.560059-4.055176,3.040039-6.07959,7.347656-6.07959,12.919922,0,3.547852.916992,6.555176,2.754883,9.024902,1.834473,2.470215,4.560059,4.497559,8.169922,6.080078,3.609863,1.585449,8.137207,2.944824,13.584961,4.084961l5.700195,1.330078c9.119629,2.027832,17.100098,4.592773,23.939941,7.694824,6.839844,3.105469,12.189453,7.19043,16.054688,12.255371,3.862793,5.067383,5.79541,11.655273,5.79541,19.759766,0,7.97998-2.060547,15.010254-6.175293,21.089844-4.117676,6.080078-9.879883,10.830078-17.290039,14.25-7.409668,3.42041-16.182617,5.130371-26.314941,5.130371Z" fill="#fff"/>
    <path d="M704.995605,553.878418c-7.219727,0-13.617676-1.615234-19.189941-4.845215-5.575195-3.22998-9.879883-7.790039-12.919922-13.679688-3.040039-5.890137-4.560059-12.759766-4.560059-20.615234v-56.239746h21.660156v54.529785c0,7.600098,1.867188,13.237793,5.60498,16.910156,3.734863,3.675293,9.024902,5.509766,15.865234,5.509766,7.724609,0,13.836914-2.532227,18.334961-7.599609,4.494629-5.064941,6.744629-12.350098,6.744629-21.850098v-47.5h21.660156v93.859863h-21.279785v-13.109863h-3.22998c-1.647949,3.419922-4.655273,6.715332-9.025391,9.879883-4.369629,3.16748-10.924805,4.75-19.665039,4.75Z" fill="#fff"/>
    <path d="M782.135742,590.358398v-131.859863h21.469727v12.350098h3.22998c2.152344-3.924805,5.60498-7.410156,10.35498-10.450195s11.557617-4.560059,20.425293-4.560059c7.600098,0,14.659668,1.870117,21.185059,5.60498,6.521973,3.737793,11.74707,9.214844,15.674805,16.435059,3.924805,7.220215,5.890137,15.897461,5.890137,26.029785v3.040039c0,10.135254-1.965332,18.810059-5.890137,26.030273-3.927734,7.219727-9.120117,12.700195-15.580078,16.435059-6.459961,3.734375-13.555176,5.60498-21.279785,5.60498-5.955566,0-10.925293-.697754-14.915039-2.090332-3.990234-1.39209-7.220215-3.22998-9.689941-5.509766-2.470215-2.280273-4.402832-4.560059-5.794922-6.839844h-3.22998v49.779785h-21.850098ZM831.155762,536.018555c7.97998,0,14.534668-2.564941,19.665039-7.695312,5.129883-5.129883,7.694824-12.444824,7.694824-21.944824v-1.899902c0-9.625-2.597656-16.972656-7.790039-22.040039-5.195312-5.064941-11.717773-7.600098-19.569824-7.600098-7.855469,0-14.410645,2.535156-19.665039,7.600098-5.257812,5.067383-7.885254,12.415039-7.885254,22.040039v1.899902c0,9.5,2.627441,16.814941,7.885254,21.944824,5.254395,5.130371,11.80957,7.695312,19.665039,7.695312Z" fill="#fff"/>
    <path d="M899.746094,590.358398v-131.859863h21.469727v12.350098h3.22998c2.152344-3.924805,5.60498-7.410156,10.35498-10.450195s11.557617-4.560059,20.425293-4.560059c7.600098,0,14.659668,1.870117,21.185059,5.60498,6.521973,3.737793,11.74707,9.214844,15.674805,16.435059,3.924805,7.220215,5.890137,15.897461,5.890137,26.029785v3.040039c0,10.135254-1.965332,18.810059-5.890137,26.030273-3.927734,7.219727-9.120117,12.700195-15.580078,16.435059-6.459961,3.734375-13.555176,5.60498-21.279785,5.60498-5.955566,0-10.925293-.697754-14.915039-2.090332-3.990234-1.39209-7.220215-3.22998-9.689941-5.509766-2.470215-2.280273-4.402832-4.560059-5.794922-6.839844h-3.22998v49.779785h-21.850098ZM948.766113,536.018555c7.97998,0,14.534668-2.564941,19.665039-7.695312,5.129883-5.129883,7.694824-12.444824,7.694824-21.944824v-1.899902c0-9.625-2.597656-16.972656-7.790039-22.040039-5.195312-5.064941-11.717773-7.600098-19.569824-7.600098-7.855469,0-14.410645,2.535156-19.665039,7.600098-5.257812,5.067383-7.885254,12.415039-7.885254,22.040039v1.899902c0,9.5,2.627441,16.814941,7.885254,21.944824,5.254395,5.130371,11.80957,7.695312,19.665039,7.695312Z" fill="#fff"/>
    <path d="M1042.625977,552.358398l-35.340332-133h23.560059l30.02002,118.370117h2.660156l30.209961-118.370117h23.560059l-35.530273,133h-39.139648Z" fill="#fff"/>
    <path d="M1141.806152,446.52832c-3.927734,0-7.31543-1.297363-10.165039-3.89502-2.850098-2.594727-4.275391-6.047363-4.275391-10.35498,0-4.304688,1.425293-7.757324,4.275391-10.35498,2.849609-2.594727,6.237305-3.89502,10.165039-3.89502,4.179688,0,7.629395,1.300293,10.35498,3.89502,2.722168,2.597656,4.084961,6.050293,4.084961,10.35498,0,4.307617-1.362793,7.760254-4.084961,10.35498-2.725586,2.597656-6.175293,3.89502-10.35498,3.89502ZM1130.976074,552.358398v-93.859863h21.850098v93.859863h-21.850098Z" fill="#fff"/>
    <path d="M1215.525879,555.018555c-12.159668,0-22.16748-2.660156-30.02002-7.97998-7.85498-5.320312-12.60498-13.110352-14.25-23.370117l20.140137-5.129883c.884766,4.814941,2.470215,8.615234,4.75,11.399902,2.279785,2.787598,5.097168,4.75,8.455078,5.890137,3.354492,1.139648,6.99707,1.709961,10.924805,1.709961,5.952637,0,10.41748-1.074707,13.39502-3.22998,2.974609-2.152344,4.465332-4.875,4.465332-8.17041,0-3.419922-1.425293-5.952148-4.275391-7.599609-2.849609-1.64502-7.189941-3.040039-13.014648-4.180176l-5.890137-.950195c-6.459961-1.264648-12.350098-3.007324-17.669922-5.224609-5.320312-2.214844-9.595215-5.254883-12.825195-9.120117-3.22998-3.862305-4.844727-8.769531-4.844727-14.725098,0-9.120117,3.387207-16.149902,10.164551-21.089844,6.774902-4.939941,15.675293-7.410156,26.695312-7.410156,10.512207,0,19.189941,2.345215,26.029785,7.029785,6.840332,4.687988,11.272461,10.958008,13.300293,18.810059l-20.140137,6.080078c-1.015137-5.319824-3.22998-9.087402-6.649902-11.304688-3.419922-2.214844-7.600098-3.325195-12.540039-3.325195-5.067871,0-8.962891.887695-11.685059,2.660156-2.725098,1.774902-4.084961,4.307617-4.084961,7.599609,0,3.29541,1.39209,5.765625,4.180176,7.410156,2.784668,1.647949,6.521973,2.850098,11.209961,3.609863l5.889648,1.140137c6.964844,1.267578,13.267578,2.915527,18.905273,4.939941,5.634766,2.027832,10.099609,4.939941,13.39502,8.740234,3.291992,3.799805,4.939941,8.929688,4.939941,15.389648,0,9.755371-3.515137,17.260742-10.544922,22.515137-7.030273,5.254883-16.500488,7.885254-28.405273,7.885254Z" fill="#fff"/>
    <path d="M1308.625488,553.878418c-7.219727,0-13.617676-1.615234-19.189941-4.845215-5.575195-3.22998-9.879883-7.790039-12.919922-13.679688-3.040039-5.890137-4.560059-12.759766-4.560059-20.615234v-56.239746h21.660156v54.529785c0,7.600098,1.867188,13.237793,5.60498,16.910156,3.734863,3.675293,9.024902,5.509766,15.865234,5.509766,7.724609,0,13.836914-2.532227,18.334961-7.599609,4.494629-5.064941,6.744629-12.350098,6.744629-21.850098v-47.5h21.660156v93.859863h-21.279785v-13.109863h-3.22998c-1.647949,3.419922-4.655273,6.715332-9.025391,9.879883-4.369629,3.16748-10.924805,4.75-19.665039,4.75Z" fill="#fff"/>
    <path d="M1414.835938,555.018555c-6.587402,0-12.540039-1.172852-17.859863-3.515137-5.320312-2.342285-9.532715-5.729492-12.635254-10.165039-3.10498-4.432129-4.654785-9.879883-4.654785-16.339844,0-6.33252,1.549805-11.652344,4.654785-15.959961,3.102539-4.304688,7.377441-7.567383,12.825195-9.785156,5.444824-2.214844,11.652344-3.325195,18.620117-3.325195h27.169922v-5.699707c0-4.939941-1.52002-8.959961-4.560059-12.064941-3.040039-3.102539-7.790039-4.655273-14.25-4.655273-6.335449,0-11.115234,1.490234-14.345215,4.465332-3.22998,2.977539-5.352539,6.810059-6.364746,11.494629l-20.140137-6.649902c1.52002-4.939941,3.95752-9.43457,7.314941-13.489746,3.35498-4.052734,7.819824-7.31543,13.39502-9.785156,5.572266-2.470215,12.412598-3.705078,20.52002-3.705078,12.284668,0,21.945312,3.072754,28.975098,9.214844,7.029785,6.145508,10.544922,15.042969,10.544922,26.695312v36.859863c0,3.799805,1.772461,5.700195,5.320312,5.700195h7.97998v18.049805h-15.390137c-4.560059,0-8.297852-1.140137-11.209961-3.419922-2.915527-2.280273-4.370117-5.382324-4.370117-9.310059v-.379883h-3.22998c-.759766,1.775391-2.089844,3.927734-3.990234,6.459961-1.899902,2.535156-4.782227,4.720215-8.644531,6.554688-3.865723,1.834961-9.090332,2.755371-15.675293,2.755371ZM1418.445801,537.158203c7.220215,0,13.110352-2.057129,17.67041-6.174805,4.55957-4.114746,6.839844-9.657227,6.839844-16.625v-1.899902h-25.839844c-4.687988,0-8.487793,1.015137-11.400391,3.040039-2.915039,2.027344-4.369629,5.005371-4.369629,8.929688,0,3.800293,1.52002,6.873047,4.55957,9.215332,3.040039,2.345215,7.220215,3.514648,12.540039,3.514648Z" fill="#fff"/>
    <path d="M1491.595703,552.358398v-133h21.850098v133h-21.850098Z" fill="#fff"/>
    <path d="M1576.145508,555.018555c-12.159668,0-22.16748-2.660156-30.02002-7.97998-7.85498-5.320312-12.60498-13.110352-14.25-23.370117l20.140137-5.129883c.884766,4.814941,2.470215,8.615234,4.75,11.399902,2.279785,2.787598,5.097168,4.75,8.455078,5.890137,3.354492,1.139648,6.99707,1.709961,10.924805,1.709961,5.952637,0,10.41748-1.074707,13.39502-3.22998,2.974609-2.152344,4.465332-4.875,4.465332-8.17041,0-3.419922-1.425293-5.952148-4.275391-7.599609-2.849609-1.64502-7.189941-3.040039-13.014648-4.180176l-5.890137-.950195c-6.459961-1.264648-12.350098-3.007324-17.669922-5.224609-5.320312-2.214844-9.595215-5.254883-12.825195-9.120117-3.22998-3.862305-4.844727-8.769531-4.844727-14.725098,0-9.120117,3.387207-16.149902,10.164551-21.089844,6.774902-4.939941,15.675293-7.410156,26.695312-7.410156,10.512207,0,19.189941,2.345215,26.029785,7.029785,6.840332,4.687988,11.272461,10.958008,13.300293,18.810059l-20.140137,6.080078c-1.015137-5.319824-3.22998-9.087402-6.649902-11.304688-3.419922-2.214844-7.600098-3.325195-12.540039-3.325195-5.067871,0-8.962891.887695-11.685059,2.660156-2.725098,1.774902-4.084961,4.307617-4.084961,7.599609,0,3.29541,1.39209,5.765625,4.180176,7.410156,2.784668,1.647949,6.521973,2.850098,11.209961,3.609863l5.889648,1.140137c6.964844,1.267578,13.267578,2.915527,18.905273,4.939941,5.634766,2.027832,10.099609,4.939941,13.39502,8.740234,3.291992,3.799805,4.939941,8.929688,4.939941,15.389648,0,9.755371-3.515137,17.260742-10.544922,22.515137-7.030273,5.254883-16.500488,7.885254-28.405273,7.885254Z" fill="#fff"/>
  </g>
  <g>
    <path d="M555.97168,673.189453v-42.51416h4.408203v42.51416h-4.408203ZM559.219727,657.703613v-3.88623h9.860352c2.280762,0,4.136719-.435059,5.567871-1.304688,1.430176-.870117,2.494141-2.030273,3.189941-3.480469.695801-1.449707,1.043945-3.063965,1.043945-4.842773,0-1.816895-.348145-3.451172-1.043945-4.900879-.695801-1.450195-1.759766-2.600098-3.189941-3.451172-1.431152-.850098-3.287109-1.275879-5.567871-1.275879h-9.860352v-3.88623h9.105957c3.402344,0,6.215332.561035,8.438965,1.682129,2.223145,1.12207,3.88623,2.667969,4.988281,4.640137,1.102051,1.97168,1.652832,4.233887,1.652832,6.786133v.811523c0,2.51416-.550781,4.766113-1.652832,6.757324-1.102051,1.991699-2.765137,3.547852-4.988281,4.668945-2.223633,1.12207-5.036621,1.682129-8.438965,1.682129h-9.105957Z" fill="#f1f2f2"/>
    <path d="M592.743652,673.189453v-42.339844h4.350098v23.953613l-1.275879.986328c0-2.861328.415039-5.35498,1.246582-7.481934.831055-2.126465,2.088379-3.779297,3.77002-4.958984,1.682129-1.179199,3.799316-1.769043,6.351074-1.769043h.231934c3.712402,0,6.525391,1.217773,8.438965,3.653809,1.914062,2.436035,2.871094,5.819824,2.871094,10.149902v17.806152h-4.291992v-18.733887c0-2.745117-.753906-4.910156-2.261719-6.496094-1.508301-1.584961-3.538086-2.37793-6.090332-2.37793-2.745605,0-4.929688.879883-6.553711,2.638672-1.624023,1.760254-2.436035,4.070312-2.436035,6.931152v18.038086h-4.350098Z" fill="#f1f2f2"/>
    <path d="M644.538086,674.175293c-2.629883,0-4.939941-.45459-6.931152-1.362793-1.991699-.908203-3.673828-2.125977-5.045898-3.653809-1.373047-1.527344-2.416992-3.238281-3.131836-5.133301-.716309-1.894043-1.073242-3.828125-1.073242-5.799805v-.812012c0-1.972168.367188-3.915039,1.102051-5.829102.733887-1.914062,1.797852-3.625,3.189941-5.132812,1.39209-1.508301,3.083008-2.716309,5.075195-3.625,1.990723-.908203,4.262695-1.363281,6.814941-1.363281,2.589844,0,4.880859.455078,6.873047,1.363281,1.990723.908691,3.683105,2.116699,5.074707,3.625,1.39209,1.507812,2.445312,3.21875,3.161133,5.132812.714844,1.914062,1.073242,3.856934,1.073242,5.829102v.812012c0,1.97168-.348145,3.905762-1.044434,5.799805-.695801,1.89502-1.730469,3.605957-3.102539,5.133301-1.373047,1.527832-3.064941,2.745605-5.075195,3.653809-2.01123.908203-4.331055,1.362793-6.959961,1.362793ZM644.538086,670.289551c2.551758,0,4.707031-.570312,6.466797-1.710938,1.759277-1.140137,3.103027-2.648438,4.03125-4.523926.927734-1.875488,1.39209-3.953125,1.39209-6.235352,0-2.319824-.474121-4.416992-1.421387-6.292969-.947754-1.875-2.310547-3.36377-4.088867-4.46582-1.778809-1.102051-3.905762-1.65332-6.379883-1.65332-2.436035,0-4.543945.55127-6.322266,1.65332-1.778809,1.102051-3.141602,2.59082-4.088867,4.46582-.947754,1.875977-1.420898,3.973145-1.420898,6.292969,0,2.282227.463867,4.359863,1.39209,6.235352.927734,1.875488,2.270996,3.383789,4.030762,4.523926,1.759277,1.140625,3.89502,1.710938,6.40918,1.710938Z" fill="#f1f2f2"/>
    <path d="M666.056152,645.813477v-3.306152h20.763672v3.306152h-20.763672ZM681.948242,673.537598c-2.126953,0-3.964355-.310059-5.510254-.928223-1.546875-.618164-2.746094-1.671875-3.596191-3.161133-.850586-1.487793-1.275879-3.48877-1.275879-6.00293v-30.624023h4.17627v31.262207c0,1.778809.48291,3.14209,1.449707,4.088867.966309.948242,2.339355,1.420898,4.118164,1.420898h5.509766v3.944336h-4.871582Z" fill="#f1f2f2"/>
    <path d="M709.903809,674.175293c-2.629883,0-4.939941-.45459-6.931152-1.362793-1.991699-.908203-3.673828-2.125977-5.045898-3.653809-1.373047-1.527344-2.416992-3.238281-3.131836-5.133301-.716309-1.894043-1.073242-3.828125-1.073242-5.799805v-.812012c0-1.972168.367188-3.915039,1.102051-5.829102.733887-1.914062,1.797852-3.625,3.189941-5.132812,1.39209-1.508301,3.083008-2.716309,5.075195-3.625,1.990723-.908203,4.262695-1.363281,6.814941-1.363281,2.589844,0,4.880859.455078,6.873047,1.363281,1.990723.908691,3.683105,2.116699,5.074707,3.625,1.39209,1.507812,2.445312,3.21875,3.161133,5.132812.714844,1.914062,1.073242,3.856934,1.073242,5.829102v.812012c0,1.97168-.348145,3.905762-1.044434,5.799805-.695801,1.89502-1.730469,3.605957-3.102539,5.133301-1.373047,1.527832-3.064941,2.745605-5.075195,3.653809-2.01123.908203-4.331055,1.362793-6.959961,1.362793ZM709.903809,670.289551c2.551758,0,4.707031-.570312,6.466797-1.710938,1.759277-1.140137,3.103027-2.648438,4.03125-4.523926.927734-1.875488,1.39209-3.953125,1.39209-6.235352,0-2.319824-.474121-4.416992-1.421387-6.292969-.947754-1.875-2.310547-3.36377-4.088867-4.46582-1.778809-1.102051-3.905762-1.65332-6.379883-1.65332-2.436035,0-4.543945.55127-6.322266,1.65332-1.778809,1.102051-3.141602,2.59082-4.088867,4.46582-.947754,1.875977-1.420898,3.973145-1.420898,6.292969,0,2.282227.463867,4.359863,1.39209,6.235352.927734,1.875488,2.270996,3.383789,4.030762,4.523926,1.759277,1.140625,3.89502,1.710938,6.40918,1.710938Z" fill="#f1f2f2"/>
    <path d="M736.177734,673.189453v-30.682129h3.47998v12.818359h-.348145c0-4.485352.986328-7.80127,2.958008-9.947266,1.972168-2.145996,5.06543-3.21875,9.280273-3.21875h.98584v3.943848h-1.797852c-3.326172,0-5.85791.86084-7.598145,2.581055-1.739746,1.720703-2.609863,4.243652-2.609863,7.568848v16.936035h-4.350098Z" fill="#f1f2f2"/>
    <path d="M773.181641,674.175293c-2.629883,0-4.910645-.45459-6.84375-1.362793-1.934082-.908203-3.519043-2.125977-4.755859-3.653809-1.238281-1.527344-2.15625-3.238281-2.755371-5.133301-.599609-1.894043-.898926-3.847168-.898926-5.85791v-.812012c0-1.972168.299316-3.905273.898926-5.799805.599121-1.894043,1.51709-3.596191,2.755371-5.104004,1.236816-1.508301,2.792969-2.716309,4.668945-3.625,1.875-.908203,4.068848-1.363281,6.583008-1.363281,3.208984,0,5.886719.71582,8.032715,2.145996,2.145996,1.431152,3.760254,3.257812,4.843262,5.480957,1.082031,2.224121,1.624023,4.611328,1.624023,7.163086v2.262207h-27.434082v-3.364258h24.417969l-1.102051,1.682129c0-2.28125-.396973-4.282227-1.188965-6.00293-.792969-1.720215-1.953125-3.074219-3.47998-4.060059-1.527832-.98584-3.432129-1.479004-5.712891-1.479004-2.397949,0-4.38916.561035-5.974121,1.682129-1.585938,1.121582-2.774902,2.609863-3.566895,4.46582-.792969,1.855957-1.188965,3.963867-1.188965,6.321777,0,2.320312.395996,4.437012,1.188965,6.351074.791992,1.914062,2.009766,3.432129,3.653809,4.553223,1.643066,1.12207,3.721191,1.682129,6.234863,1.682129,2.667969,0,4.833008-.609375,6.496094-1.827148,1.662109-1.218262,2.687012-2.658203,3.074219-4.321289h4.060059c-.387207,2.050293-1.199219,3.819336-2.436035,5.307129-1.238281,1.489258-2.804199,2.63916-4.698242,3.451172-1.89502.812012-4.060059,1.217773-6.496094,1.217773Z" fill="#f1f2f2"/>
    <path d="M805.197754,674.001465c-2.166016,0-4.080078-.387207-5.741699-1.160156-1.663086-.772949-2.949219-1.894043-3.857422-3.36377-.908691-1.469238-1.362793-3.248047-1.362793-5.335938,0-2.049316.473145-3.789062,1.420898-5.220215.947266-1.430176,2.320312-2.522949,4.118164-3.276855s3.973145-1.130859,6.524902-1.130859h8.990234v3.305664h-9.280273c-2.436035,0-4.301758.589844-5.597168,1.769043-1.295898,1.180176-1.942871,2.716797-1.942871,4.61084,0,1.934082.67627,3.471191,2.030273,4.611328,1.353027,1.141113,3.189941,1.710938,5.509766,1.710938,1.430176,0,2.803223-.26123,4.118164-.783203,1.313965-.521973,2.416016-1.410645,3.305664-2.667969.88916-1.255859,1.37207-2.986816,1.450195-5.190918l1.275879,1.797852c-.154785,2.282227-.695801,4.186035-1.624023,5.713379-.927734,1.527832-2.18457,2.677734-3.77002,3.450684-1.585938.772949-3.441895,1.160156-5.567871,1.160156ZM815.57959,673.189453v-9.222168h-.695801v-10.903809c0-2.28125-.600098-4.03125-1.797852-5.249023-1.199219-1.217773-3.055176-1.827148-5.567871-1.827148-1.160156,0-2.330078.02002-3.509277.058105-1.179688.039062-2.300781.086914-3.36377.14502-1.063965.058105-2.000977.125977-2.812988.203125v-3.828125c.850098-.077148,1.719727-.153809,2.609863-.231934.88916-.077148,1.807129-.125,2.754883-.14502.947266-.019043,1.865234-.028809,2.754883-.028809,3.132324,0,5.655273.386719,7.569336,1.159668,1.914062.773926,3.314941,1.981934,4.205078,3.625.888672,1.644043,1.333984,3.818848,1.333984,6.524902v19.720215h-3.480469Z" fill="#f1f2f2"/>
    <path d="M826.948242,634.387695v-3.538086h8.815918v3.538086h-8.815918ZM831.414062,673.189453v-42.339844h4.350098v42.339844h-4.350098Z" fill="#f1f2f2"/>
    <path d="M874.565918,674.175293c-3.094238,0-5.712891-.599609-7.858887-1.797852s-3.780273-2.822266-4.901367-4.87207c-1.121582-2.048828-1.681641-4.291992-1.681641-6.728027h4.233887c0,2.938965.908203,5.269043,2.726074,6.989258,1.816895,1.720703,4.311035,2.581055,7.481934,2.581055,2.048828,0,3.836914-.38623,5.364746-1.160156,1.527344-.772949,2.706055-1.875,3.538086-3.306152.831055-1.430176,1.24707-3.092773,1.24707-4.987793,0-2.899902-.90918-5.239258-2.726074-7.018066-1.817871-1.77832-4.272949-2.667969-7.365723-2.667969-1.238281,0-2.30127.14502-3.189941.435059-.890137.290039-1.682129.647949-2.378418,1.072754l-2.37793-4.060059,16.87793-13.10791-.463867-.927734h-21.286133v-3.77002h25.346191v6.263672l-14.963867,11.658203-2.842285.058105c.696289-.309082,1.488281-.570312,2.37793-.783203.88916-.211914,1.914062-.318848,3.074219-.318848,2.977051,0,5.519043.580078,7.626953,1.739746,2.106934,1.160156,3.721191,2.707031,4.843262,4.640137,1.120605,1.934082,1.681641,4.060059,1.681641,6.379883v.812012c0,2.243164-.561035,4.350098-1.681641,6.322266-1.12207,1.97168-2.746094,3.557617-4.87207,4.755859-2.126953,1.198242-4.737305,1.797852-7.830078,1.797852Z" fill="#f1f2f2"/>
    <path d="M900.491699,673.421387v-42.746094h4.408203v42.746094h-4.408203ZM903.739746,673.421387v-4.060059h11.541992c2.861328,0,5.365234-.463867,7.51123-1.39209,2.145996-.927734,3.953125-2.193848,5.422852-3.798828,1.469238-1.604004,2.571289-3.451172,3.306152-5.539062.733887-2.087891,1.102051-4.311035,1.102051-6.669922,0-2.436035-.376953-4.697754-1.131348-6.786133-.753906-2.087891-1.865723-3.923828-3.334961-5.509766-1.469727-1.584961-3.276855-2.803223-5.422852-3.654297-2.145996-.849609-4.630859-1.275879-7.453125-1.275879h-11.541992v-4.060059h11.078125c3.789062,0,7.076172.580078,9.859863,1.740234,2.78418,1.160156,5.104004,2.73584,6.959961,4.727051,1.855957,1.991699,3.228027,4.224609,4.118164,6.69873.88916,2.475098,1.333984,4.988281,1.333984,7.540039v1.102051c0,2.51416-.444824,5.007812-1.333984,7.481934-.890137,2.475098-2.243164,4.727051-4.060059,6.757324-1.817871,2.029785-4.12793,3.653809-6.931152,4.871582-2.803711,1.218262-6.118652,1.827148-9.946777,1.827148h-11.078125Z" fill="#f1f2f2"/>
    <path d="M976.124023,674.175293c-3.558105,0-6.554199-.570801-8.990234-1.710938s-4.282715-2.726074-5.539062-4.755859c-1.256836-2.030273-1.884766-4.320801-1.884766-6.873047h4.408203c0,1.624023.395996,3.14209,1.188965,4.553223.791992,1.411621,2.067871,2.551758,3.827637,3.421875,1.759277.870117,4.089355,1.304688,6.989258,1.304688,2.667969,0,4.880859-.385742,6.641113-1.159668,1.758789-.772949,3.07373-1.817383,3.943848-3.132324.870117-1.313965,1.305176-2.783691,1.305176-4.407715,0-2.049316-.803223-3.760254-2.407227-5.133301-1.60498-1.37207-4.011719-2.193848-7.221191-2.464844l-4.871582-.463867c-3.635254-.309082-6.525391-1.439941-8.671387-3.393066-2.145996-1.952148-3.21875-4.533203-3.21875-7.743164,0-2.436035.580078-4.582031,1.739746-6.437988,1.160156-1.855957,2.812988-3.324707,4.958984-4.407715,2.145996-1.082031,4.727051-1.624023,7.743164-1.624023,3.054199,0,5.673828.550781,7.858887,1.652832,2.184082,1.102051,3.856934,2.620117,5.01709,4.553223,1.160156,1.933594,1.740234,4.175781,1.740234,6.728027h-4.408203c0-1.546387-.348145-2.996094-1.043945-4.350098-.695801-1.353027-1.797852-2.445312-3.306152-3.276855-1.507812-.831055-3.460938-1.24707-5.85791-1.24707-2.281738,0-4.166992.386719-5.654785,1.159668-1.489258.773926-2.591309,1.79834-3.306152,3.074219-.71582,1.275879-1.073242,2.667969-1.073242,4.175781,0,1.89502.67627,3.5,2.030273,4.813965,1.353027,1.314941,3.306152,2.069336,5.85791,2.262207l4.87207.463867c2.86084.231934,5.307129.86084,7.336914,1.885254,2.030273,1.024902,3.585938,2.358887,4.668945,4.001953,1.082031,1.644043,1.624023,3.566895,1.624023,5.770996,0,2.475098-.666992,4.678711-2.000977,6.611816-1.333984,1.934082-3.21875,3.441895-5.654785,4.523926s-5.317383,1.624023-8.64209,1.624023Z" fill="#f1f2f2"/>
    <path d="M1013.824219,674.05957c-3.674316,0-6.477051-1.188965-8.410156-3.566895-1.934082-2.378418-2.899902-5.693359-2.899902-9.947266v-18.096191h4.291992v18.966309c0,2.667969.705078,4.785156,2.116699,6.351074,1.411133,1.565918,3.373047,2.348633,5.887207,2.348633,2.628906,0,4.727051-.831055,6.292969-2.493652,1.565918-1.662109,2.349121-3.88623,2.349121-6.669922v-18.502441h4.349609v30.740234h-3.47998v-12.817871h.696289c0,2.861816-.40625,5.306641-1.218262,7.336914-.812012,2.029785-2.029785,3.596191-3.653809,4.697754-1.624023,1.102051-3.673828,1.65332-6.147949,1.65332h-.173828Z" fill="#f1f2f2"/>
    <path d="M1040.387695,684.789551v-42.282227h3.47998v13.166016l-1.043945.116211c.153809-3.093262.821289-5.703125,2.000977-7.830078,1.179199-2.125977,2.78418-3.741211,4.813965-4.843262,2.030273-1.101562,4.30127-1.652832,6.814941-1.652832,2.242188,0,4.282227.435059,6.119141,1.305176,1.835938.870117,3.401855,2.049805,4.697754,3.538086,1.29541,1.48877,2.28125,3.189941,2.958008,5.104004.67627,1.913574,1.015137,3.915039,1.015137,6.00293v.812012c0,2.087891-.348145,4.088867-1.043945,6.00293s-1.691895,3.615723-2.986816,5.104004c-1.295898,1.48877-2.862305,2.667969-4.698242,3.538086-1.836914.869629-3.895996,1.304688-6.176758,1.304688-2.436035,0-4.668945-.550781-6.699219-1.652832-2.029785-1.102051-3.673828-2.734863-4.930176-4.900879-1.256836-2.165039-1.942871-4.833008-2.058594-8.003906l2.087891,4.349609v20.822266h-4.350098ZM1055.757812,670.347656c2.319824,0,4.311035-.55127,5.974121-1.65332,1.661621-1.102051,2.937988-2.609863,3.827637-4.523926.88916-1.914062,1.333984-4.030762,1.333984-6.351074,0-2.396973-.45459-4.532715-1.362793-6.408691-.90918-1.875-2.194824-3.364258-3.856934-4.466309-1.663086-1.102051-3.635254-1.652832-5.916016-1.652832-2.087891,0-3.98291.463867-5.684082,1.39209-1.702148.927734-3.044922,2.23291-4.03125,3.915039-.98584,1.681641-1.479004,3.663574-1.479004,5.944824v2.841797c0,2.166016.493164,4.070312,1.479004,5.713379.986328,1.643555,2.329102,2.928711,4.03125,3.856934,1.701172.927734,3.596191,1.39209,5.684082,1.39209Z" fill="#f1f2f2"/>
    <path d="M1081.277832,684.789551v-42.282227h3.47998v13.166016l-1.043945.116211c.153809-3.093262.821289-5.703125,2.000977-7.830078,1.179199-2.125977,2.78418-3.741211,4.813965-4.843262,2.030273-1.101562,4.30127-1.652832,6.814941-1.652832,2.242188,0,4.282227.435059,6.119141,1.305176,1.835938.870117,3.401855,2.049805,4.697754,3.538086,1.29541,1.48877,2.28125,3.189941,2.958008,5.104004.67627,1.913574,1.015137,3.915039,1.015137,6.00293v.812012c0,2.087891-.348145,4.088867-1.043945,6.00293s-1.691895,3.615723-2.986816,5.104004c-1.295898,1.48877-2.862305,2.667969-4.698242,3.538086-1.836914.869629-3.895996,1.304688-6.176758,1.304688-2.436035,0-4.668945-.550781-6.699219-1.652832-2.029785-1.102051-3.673828-2.734863-4.930176-4.900879-1.256836-2.165039-1.942871-4.833008-2.058594-8.003906l2.087891,4.349609v20.822266h-4.350098ZM1096.647949,670.347656c2.319824,0,4.311035-.55127,5.974121-1.65332,1.661621-1.102051,2.937988-2.609863,3.827637-4.523926.88916-1.914062,1.333984-4.030762,1.333984-6.351074,0-2.396973-.45459-4.532715-1.362793-6.408691-.90918-1.875-2.194824-3.364258-3.856934-4.466309-1.663086-1.102051-3.635254-1.652832-5.916016-1.652832-2.087891,0-3.98291.463867-5.684082,1.39209-1.702148.927734-3.044922,2.23291-4.03125,3.915039-.98584,1.681641-1.479004,3.663574-1.479004,5.944824v2.841797c0,2.166016.493164,4.070312,1.479004,5.713379.986328,1.643555,2.329102,2.928711,4.03125,3.856934,1.701172.927734,3.596191,1.39209,5.684082,1.39209Z" fill="#f1f2f2"/>
    <path d="M1117.992188,634.387695v-3.538086h8.815918v3.538086h-8.815918ZM1122.458008,673.189453v-42.339844h4.350098v42.339844h-4.350098Z" fill="#f1f2f2"/>
    <path d="M1152.095703,674.175293c-2.629883,0-4.910645-.45459-6.84375-1.362793-1.934082-.908203-3.519043-2.125977-4.755859-3.653809-1.238281-1.527344-2.15625-3.238281-2.755371-5.133301-.599609-1.894043-.898926-3.847168-.898926-5.85791v-.812012c0-1.972168.299316-3.905273.898926-5.799805.599121-1.894043,1.51709-3.596191,2.755371-5.104004,1.236816-1.508301,2.792969-2.716309,4.668945-3.625,1.875-.908203,4.068848-1.363281,6.583008-1.363281,3.208984,0,5.886719.71582,8.032715,2.145996,2.145996,1.431152,3.760254,3.257812,4.843262,5.480957,1.082031,2.224121,1.624023,4.611328,1.624023,7.163086v2.262207h-27.434082v-3.364258h24.417969l-1.102051,1.682129c0-2.28125-.396973-4.282227-1.188965-6.00293-.792969-1.720215-1.953125-3.074219-3.47998-4.060059-1.527832-.98584-3.432129-1.479004-5.712891-1.479004-2.397949,0-4.38916.561035-5.974121,1.682129-1.585938,1.121582-2.774902,2.609863-3.566895,4.46582-.792969,1.855957-1.188965,3.963867-1.188965,6.321777,0,2.320312.395996,4.437012,1.188965,6.351074.791992,1.914062,2.009766,3.432129,3.653809,4.553223,1.643066,1.12207,3.721191,1.682129,6.234863,1.682129,2.667969,0,4.833008-.609375,6.496094-1.827148,1.662109-1.218262,2.687012-2.658203,3.074219-4.321289h4.060059c-.387207,2.050293-1.199219,3.819336-2.436035,5.307129-1.238281,1.489258-2.804199,2.63916-4.698242,3.451172-1.89502.812012-4.060059,1.217773-6.496094,1.217773Z" fill="#f1f2f2"/>
    <path d="M1175.817871,673.189453v-30.740234h3.47998v12.934082h-.695801c0-2.821777.395996-5.257812,1.188965-7.307617.791992-2.049316,1.980957-3.644043,3.566895-4.785156,1.584961-1.140137,3.596191-1.710938,6.032227-1.710938h.173828c2.436035,0,4.445801.561035,6.031738,1.681641,1.585449,1.12207,2.76416,2.707031,3.538086,4.756348.772949,2.049805,1.160156,4.504883,1.160156,7.365723h-1.39209c0-2.821777.395996-5.257812,1.188965-7.307617.791992-2.049316,1.991211-3.644043,3.596191-4.785156,1.604004-1.140137,3.625-1.710938,6.061035-1.710938h.173828c2.436035,0,4.456055.561035,6.061035,1.681641,1.604004,1.12207,2.803223,2.707031,3.596191,4.756348.791992,2.049805,1.188965,4.504883,1.188965,7.365723v17.806152h-4.350098v-18.791992c0-2.706055-.658203-4.852051-1.972168-6.437988-1.314941-1.584961-3.209961-2.37793-5.684082-2.37793-2.551758,0-4.572754.821777-6.061035,2.464844-1.48877,1.644043-2.23291,3.856934-2.23291,6.641113v18.501953h-4.350098v-18.791992c0-2.706055-.657715-4.852051-1.97168-6.437988-1.314941-1.584961-3.209961-2.37793-5.684082-2.37793-2.552246,0-4.572754.821777-6.061035,2.464844-1.48877,1.644043-2.23291,3.856934-2.23291,6.641113v18.501953h-4.350098Z" fill="#f1f2f2"/>
    <path d="M1245.649414,674.175293c-2.629883,0-4.910645-.45459-6.84375-1.362793-1.934082-.908203-3.519043-2.125977-4.755859-3.653809-1.238281-1.527344-2.15625-3.238281-2.755371-5.133301-.599609-1.894043-.898926-3.847168-.898926-5.85791v-.812012c0-1.972168.299316-3.905273.898926-5.799805.599121-1.894043,1.51709-3.596191,2.755371-5.104004,1.236816-1.508301,2.792969-2.716309,4.668945-3.625,1.875-.908203,4.068848-1.363281,6.583008-1.363281,3.208984,0,5.886719.71582,8.032715,2.145996,2.145996,1.431152,3.760254,3.257812,4.843262,5.480957,1.082031,2.224121,1.624023,4.611328,1.624023,7.163086v2.262207h-27.434082v-3.364258h24.417969l-1.102051,1.682129c0-2.28125-.396973-4.282227-1.188965-6.00293-.792969-1.720215-1.953125-3.074219-3.47998-4.060059-1.527832-.98584-3.432129-1.479004-5.712891-1.479004-2.397949,0-4.38916.561035-5.974121,1.682129-1.585938,1.121582-2.774902,2.609863-3.566895,4.46582-.792969,1.855957-1.188965,3.963867-1.188965,6.321777,0,2.320312.395996,4.437012,1.188965,6.351074.791992,1.914062,2.009766,3.432129,3.653809,4.553223,1.643066,1.12207,3.721191,1.682129,6.234863,1.682129,2.667969,0,4.833008-.609375,6.496094-1.827148,1.662109-1.218262,2.687012-2.658203,3.074219-4.321289h4.060059c-.387207,2.050293-1.199219,3.819336-2.436035,5.307129-1.238281,1.489258-2.804199,2.63916-4.698242,3.451172-1.89502.812012-4.060059,1.217773-6.496094,1.217773Z" fill="#f1f2f2"/>
    <path d="M1269.371582,673.189453v-30.682129h3.47998v12.875977h-.695801c0-2.86084.424805-5.315918,1.275879-7.365723.850098-2.049316,2.125977-3.634277,3.828125-4.756348,1.700684-1.120605,3.84668-1.681641,6.437988-1.681641h.173828c3.866211,0,6.74707,1.208984,8.64209,3.625,1.894043,2.416992,2.841797,5.810059,2.841797,10.178711v17.806152h-4.291992v-18.733887c0-2.667969-.734863-4.813965-2.204102-6.437988-1.469727-1.624023-3.518555-2.436035-6.147949-2.436035-2.707031,0-4.881836.84082-6.524902,2.522949-1.644043,1.682129-2.464844,3.895996-2.464844,6.641113v18.443848h-4.350098Z" fill="#f1f2f2"/>
    <path d="M1302.664062,645.813477v-3.306152h20.763672v3.306152h-20.763672ZM1318.556152,673.537598c-2.126953,0-3.964355-.310059-5.510254-.928223-1.546875-.618164-2.746094-1.671875-3.596191-3.161133-.850586-1.487793-1.275879-3.48877-1.275879-6.00293v-30.624023h4.17627v31.262207c0,1.778809.48291,3.14209,1.449707,4.088867.966309.948242,2.339355,1.420898,4.118164,1.420898h5.509766v3.944336h-4.871582Z" fill="#f1f2f2"/>
    <path d="M1348.773438,673.189453v-42.339844h5.742188l13.339844,29.290039h1.043945l13.282227-29.290039h5.85791v42.339844h-4.407715v-37.410156l.347656.058105-12.875977,28.419922h-5.799805l-12.934082-28.419922.463867-.058105v37.410156h-4.060059Z" fill="#f1f2f2"/>
    <path d="M1415.241699,674.175293c-2.629883,0-4.939941-.45459-6.931152-1.362793-1.991699-.908203-3.673828-2.125977-5.045898-3.653809-1.373047-1.527344-2.416992-3.238281-3.131836-5.133301-.716309-1.894043-1.073242-3.828125-1.073242-5.799805v-.812012c0-1.972168.367188-3.915039,1.102051-5.829102.733887-1.914062,1.797852-3.625,3.189941-5.132812,1.39209-1.508301,3.083008-2.716309,5.075195-3.625,1.990723-.908203,4.262695-1.363281,6.814941-1.363281,2.589844,0,4.880859.455078,6.873047,1.363281,1.990723.908691,3.683105,2.116699,5.074707,3.625,1.39209,1.507812,2.445312,3.21875,3.161133,5.132812.714844,1.914062,1.073242,3.856934,1.073242,5.829102v.812012c0,1.97168-.348145,3.905762-1.044434,5.799805-.695801,1.89502-1.730469,3.605957-3.102539,5.133301-1.373047,1.527832-3.064941,2.745605-5.075195,3.653809-2.01123.908203-4.331055,1.362793-6.959961,1.362793ZM1415.241699,670.289551c2.551758,0,4.707031-.570312,6.466797-1.710938,1.759277-1.140137,3.103027-2.648438,4.03125-4.523926.927734-1.875488,1.39209-3.953125,1.39209-6.235352,0-2.319824-.474121-4.416992-1.421387-6.292969-.947754-1.875-2.310547-3.36377-4.088867-4.46582-1.778809-1.102051-3.905762-1.65332-6.379883-1.65332-2.436035,0-4.543945.55127-6.322266,1.65332-1.778809,1.102051-3.141602,2.59082-4.088867,4.46582-.947754,1.875977-1.420898,3.973145-1.420898,6.292969,0,2.282227.463867,4.359863,1.39209,6.235352.927734,1.875488,2.270996,3.383789,4.030762,4.523926,1.759277,1.140625,3.89502,1.710938,6.40918,1.710938Z" fill="#f1f2f2"/>
    <path d="M1454.449707,674.175293c-2.59082,0-4.843262-.45459-6.756836-1.362793-1.914062-.908203-3.509277-2.145996-4.785156-3.711914s-2.23291-3.296387-2.871094-5.190918c-.638184-1.894043-.957031-3.808105-.957031-5.742188v-.812012c0-1.972168.318848-3.89502.957031-5.770996.638184-1.875,1.595215-3.576172,2.871094-5.104004,1.275879-1.526855,2.871094-2.745117,4.785156-3.653809,1.913574-.908203,4.126953-1.363281,6.640625-1.363281,2.552246,0,4.823242.463867,6.814941,1.39209,1.991211.928223,3.605469,2.243164,4.843262,3.943848,1.236816,1.702148,1.972168,3.711914,2.204102,6.032227h-4.17627c-.347656-2.125977-1.34375-3.89502-2.986816-5.307129-1.644043-1.411133-3.876953-2.117188-6.699219-2.117188-2.436035,0-4.456543.55127-6.061035,1.65332-1.60498,1.102051-2.812988,2.59082-3.625,4.46582-.812012,1.875977-1.217773,3.954102-1.217773,6.234863,0,2.243164.405762,4.321289,1.217773,6.235352s2.030273,3.441895,3.654297,4.582031c1.624023,1.140625,3.672852,1.710938,6.147949,1.710938,1.894043,0,3.546875-.337891,4.958984-1.015137,1.411133-.675781,2.551758-1.594727,3.421875-2.754883s1.382324-2.436035,1.537109-3.828125h4.175781c-.154785,2.319824-.879883,4.34082-2.174805,6.061035-1.295898,1.721191-2.967773,3.055176-5.01709,4.001953-2.049805.947266-4.350098,1.420898-6.901855,1.420898Z" fill="#f1f2f2"/>
    <path d="M1477.765625,673.189453v-42.339844h4.350098v42.339844h-4.350098ZM1498.645508,673.189453l-12.354004-14.383789h-4.987793l14.558105-16.29834h4.639648l-13.049805,14.558105.290039-2.37793,16.007812,18.501953h-5.104004Z" fill="#f1f2f2"/>
    <path d="M1521.092285,674.05957c-3.674316,0-6.477051-1.188965-8.410156-3.566895-1.934082-2.378418-2.899902-5.693359-2.899902-9.947266v-18.096191h4.291992v18.966309c0,2.667969.705078,4.785156,2.116699,6.351074,1.411133,1.565918,3.373047,2.348633,5.887207,2.348633,2.628906,0,4.727051-.831055,6.292969-2.493652,1.565918-1.662109,2.349121-3.88623,2.349121-6.669922v-18.502441h4.349609v30.740234h-3.47998v-12.817871h.696289c0,2.861816-.40625,5.306641-1.218262,7.336914-.812012,2.029785-2.029785,3.596191-3.653809,4.697754-1.624023,1.102051-3.673828,1.65332-6.147949,1.65332h-.173828Z" fill="#f1f2f2"/>
    <path d="M1547.655762,684.789551v-42.282227h3.47998v13.166016l-1.043945.116211c.153809-3.093262.821289-5.703125,2.000977-7.830078,1.179199-2.125977,2.78418-3.741211,4.813965-4.843262,2.030273-1.101562,4.30127-1.652832,6.814941-1.652832,2.242188,0,4.282227.435059,6.119141,1.305176,1.835938.870117,3.401855,2.049805,4.697754,3.538086,1.29541,1.48877,2.28125,3.189941,2.958008,5.104004.67627,1.913574,1.015137,3.915039,1.015137,6.00293v.812012c0,2.087891-.348145,4.088867-1.043945,6.00293s-1.691895,3.615723-2.986816,5.104004c-1.295898,1.48877-2.862305,2.667969-4.698242,3.538086-1.836914.869629-3.895996,1.304688-6.176758,1.304688-2.436035,0-4.668945-.550781-6.699219-1.652832-2.029785-1.102051-3.673828-2.734863-4.930176-4.900879-1.256836-2.165039-1.942871-4.833008-2.058594-8.003906l2.087891,4.349609v20.822266h-4.350098ZM1563.025879,670.347656c2.319824,0,4.311035-.55127,5.974121-1.65332,1.661621-1.102051,2.937988-2.609863,3.827637-4.523926.88916-1.914062,1.333984-4.030762,1.333984-6.351074,0-2.396973-.45459-4.532715-1.362793-6.408691-.90918-1.875-2.194824-3.364258-3.856934-4.466309-1.663086-1.102051-3.635254-1.652832-5.916016-1.652832-2.087891,0-3.98291.463867-5.684082,1.39209-1.702148.927734-3.044922,2.23291-4.03125,3.915039-.98584,1.681641-1.479004,3.663574-1.479004,5.944824v2.841797c0,2.166016.493164,4.070312,1.479004,5.713379.986328,1.643555,2.329102,2.928711,4.03125,3.856934,1.701172.927734,3.596191,1.39209,5.684082,1.39209Z" fill="#f1f2f2"/>
    <path d="M1598.231934,674.05957c-3.943848,0-6.97998-.86084-9.105957-2.581055-2.126953-1.720215-3.209961-4.03125-3.248047-6.931152h4.060059c.077148,1.470215.744141,2.804199,2.000977,4.001953,1.255859,1.199219,3.354004,1.79834,6.292969,1.79834,2.745117,0,4.804199-.570312,6.176758-1.711426,1.37207-1.139648,2.059082-2.522949,2.059082-4.146973,0-1.507812-.570801-2.676758-1.710938-3.508789-1.141113-.831055-2.793945-1.362793-4.958984-1.595215l-3.47998-.347656c-2.78418-.309082-5.037109-1.169434-6.756836-2.581055-1.721191-1.411133-2.581055-3.354004-2.581055-5.829102,0-1.816895.463867-3.401855,1.39209-4.755859.927734-1.353027,2.23291-2.407227,3.915039-3.161133,1.681641-.753906,3.663086-1.130859,5.944824-1.130859,3.286133,0,5.963867.773926,8.033203,2.319824,2.067871,1.546875,3.121582,3.750977,3.160645,6.611816h-4.060059c-.038574-1.46875-.657715-2.706055-1.855957-3.711914-1.19873-1.004883-2.958008-1.507812-5.277832-1.507812-2.397949,0-4.186035.521973-5.365234,1.565918-1.179688,1.043945-1.768555,2.319824-1.768555,3.828125,0,1.275879.443848,2.330078,1.333984,3.161133.888672.831543,2.280762,1.34375,4.175781,1.536621l3.47998.348145c3.093262.348145,5.616211,1.237793,7.568848,2.667969,1.952148,1.431152,2.929199,3.47998,2.929199,6.147949,0,1.817871-.513184,3.451172-1.537109,4.900879-1.024902,1.450195-2.464844,2.581055-4.320801,3.393066s-4.021973,1.218262-6.496094,1.218262Z" fill="#f1f2f2"/>
  </g>
</svg>