<?xml version="1.0" encoding="UTF-8"?><svg id="Layer_1" xmlns="http://www.w3.org/2000/svg" viewBox="0 0 1920 1080"><g id="Icon"><path d="M338.2,473.65c-40.03-2.11-89.37,1.09-127.71,15.46-11.63,4.36-36.28,15.92-12.51,27.76,34.98,17.44,81.54,13.57,115.77,35.88,29.4,19.17,23.94,54.77,3.1,79.59-43,51.2-139.99,61.38-197.43,51.66-11.86-2.01-24.26-5.01-35.15-10.9v11.85c0,.66,1.08,4.9,1.38,5.89,7.15,23.56,33.9,25.36,51.86,26.77,48.57,3.83,102.41,2.85,151.1.56,24.22-1.14,64.49,1.47,69.44-35.54l.04-206.89c-.34-1.47-17.57-1.97-19.9-2.09Z" style="fill:#fff;"/><path d="M91.86,656.36c33.26,1.91,70.51-4.23,102.53-14.52,16.12-5.18,48.69-17.8,58.88-33.53,6.66-10.28.9-14.19-6.95-17.73-19.51-8.8-44.26-12.2-64.9-17.77-27.48-7.42-77.27-20.41-64.9-66.65,11.91-44.53,79.32-55.63,112.75-58.51,26.87-2.31,57.63-2.1,84.33,1.8,14.35,2.1,28.78,5.78,42.01,12.65-7.63-32.58-39-38.22-63.54-41.04-15.1-1.74-30.03-1.89-45.16-2.3-33.24-.9-69.01-1.76-102.04,2.3-23.5,2.89-49,10.12-58.38,38.74-3.34,10.18-2.12,21.86-2.19,32.68-.04,5.38,0,10.7,0,16.14-.08,48.85.24,97.79-.3,146.59,2.26.53,5.46,1.03,7.86,1.17Z" style="fill:#fff;"/><path d="M295.51,411.8c7.56.92,15.11,2.44,22.58,4.04.83.38.7-.88.73-1.45.65-11.34,0-24.31,0-35.84,0-2.96-4-6.15-6.04-7.33-13.83-8-41.43-9.51-57.03-10.27-28.88-1.41-58.95-1.97-87.81,1.13-9.35,1.01-35.53,4.71-42.19,11.57-.69.71-2.71,3.52-2.71,4.32v37.86l21.35-4.05c49.48-2.81,101.77-5.98,151.12,0ZM140.21,373.07l9.32-2.31.5,34.11-9.82,1.15v-32.95Z" style="fill:#fff;"/></g><path d="M487.7,559.84c-13.39,0-25.22-2.38-35.51-7.15-10.29-4.77-18.36-11.67-24.21-20.7-5.86-9.03-8.78-20.08-8.78-33.12v-6.52h29.86v6.52c0,11.54,3.51,20.16,10.54,25.85,7.03,5.69,16.39,8.53,28.11,8.53s20.83-2.42,26.85-7.28c6.02-4.85,9.03-11.12,9.03-18.82,0-5.18-1.42-9.41-4.27-12.67-2.85-3.26-6.99-5.9-12.42-7.9-5.44-2.01-12.01-3.93-19.7-5.77l-7.53-1.51c-11.54-2.67-21.54-6.06-29.99-10.16-8.45-4.1-14.93-9.41-19.45-15.93-4.52-6.52-6.78-15.06-6.78-25.6s2.51-19.57,7.53-27.1,12.13-13.3,21.33-17.31c9.2-4.01,19.99-6.02,32.37-6.02s23.42,2.09,33.12,6.27c9.7,4.18,17.35,10.46,22.96,18.82,5.6,8.37,8.41,18.82,8.41,31.37v8.28h-29.86v-8.28c0-7.19-1.42-12.96-4.27-17.31-2.85-4.35-6.86-7.53-12.05-9.54-5.19-2.01-11.29-3.01-18.32-3.01-10.38,0-18.24,2.01-23.59,6.02-5.36,4.01-8.03,9.7-8.03,17.06,0,4.69,1.21,8.66,3.64,11.92,2.42,3.26,6.02,5.94,10.79,8.03,4.77,2.09,10.75,3.89,17.94,5.4l7.53,1.76c12.04,2.68,22.58,6.07,31.62,10.16,9.03,4.1,16.1,9.5,21.21,16.19,5.1,6.69,7.65,15.39,7.65,26.1s-2.72,19.82-8.16,27.85c-5.44,8.03-13.05,14.3-22.84,18.82s-21.37,6.78-34.75,6.78Z" style="fill:#fff;"/><path d="M623.21,558.33c-9.54,0-17.99-2.13-25.34-6.4-7.36-4.27-13.05-10.29-17.06-18.07-4.02-7.78-6.02-16.85-6.02-27.23v-74.28h28.61v72.02c0,10.04,2.47,17.48,7.4,22.33,4.93,4.85,11.92,7.28,20.95,7.28,10.2,0,18.28-3.34,24.22-10.04,5.94-6.69,8.91-16.31,8.91-28.86v-62.73h28.61v123.96h-28.11v-17.31h-4.27c-2.18,4.52-6.15,8.87-11.92,13.05-5.77,4.18-14.43,6.27-25.97,6.27Z" style="fill:#fff;"/><path d="M725.09,606.51v-174.15h28.36v16.31h4.27c2.84-5.18,7.4-9.79,13.68-13.8s15.26-6.02,26.98-6.02c10.04,0,19.36,2.47,27.98,7.4,8.61,4.94,15.52,12.17,20.7,21.71,5.18,9.54,7.78,21,7.78,34.38v4.02c0,13.39-2.6,24.84-7.78,34.38-5.19,9.54-12.04,16.77-20.58,21.71-8.53,4.93-17.9,7.4-28.1,7.4-7.87,0-14.43-.92-19.7-2.76s-9.54-4.27-12.8-7.28c-3.26-3.01-5.81-6.02-7.65-9.03h-4.27v65.75h-28.86ZM789.83,534.74c10.54,0,19.2-3.39,25.97-10.16s10.16-16.44,10.16-28.98v-2.51c0-12.71-3.43-22.42-10.29-29.11-6.86-6.69-15.48-10.04-25.85-10.04s-19.03,3.35-25.97,10.04c-6.94,6.69-10.41,16.4-10.41,29.11v2.51c0,12.55,3.47,22.21,10.41,28.98,6.94,6.78,15.6,10.16,25.97,10.16Z" style="fill:#fff;"/><path d="M880.42,606.51v-174.15h28.36v16.31h4.27c2.84-5.18,7.4-9.79,13.68-13.8s15.26-6.02,26.98-6.02c10.04,0,19.36,2.47,27.98,7.4,8.61,4.94,15.52,12.17,20.7,21.71,5.18,9.54,7.78,21,7.78,34.38v4.02c0,13.39-2.6,24.84-7.78,34.38-5.19,9.54-12.04,16.77-20.58,21.71-8.53,4.93-17.9,7.4-28.1,7.4-7.87,0-14.43-.92-19.7-2.76s-9.54-4.27-12.8-7.28c-3.26-3.01-5.81-6.02-7.65-9.03h-4.27v65.75h-28.86ZM945.16,534.74c10.54,0,19.2-3.39,25.97-10.16s10.16-16.44,10.16-28.98v-2.51c0-12.71-3.43-22.42-10.29-29.11-6.86-6.69-15.48-10.04-25.85-10.04s-19.03,3.35-25.97,10.04c-6.94,6.69-10.41,16.4-10.41,29.11v2.51c0,12.55,3.47,22.21,10.41,28.98,6.94,6.78,15.6,10.16,25.97,10.16Z" style="fill:#fff;"/><path d="M1069.13,556.32l-46.67-175.66h31.12l39.65,156.34h3.51l39.9-156.34h31.12l-46.93,175.66h-51.69Z" style="fill:#fff;"/><path d="M1200.12,416.55c-5.19,0-9.66-1.71-13.43-5.14-3.76-3.43-5.65-7.99-5.65-13.68s1.88-10.25,5.65-13.68c3.76-3.43,8.24-5.14,13.43-5.14,5.52,0,10.08,1.72,13.68,5.14,3.6,3.43,5.4,7.99,5.4,13.68s-1.8,10.25-5.4,13.68c-3.6,3.43-8.16,5.14-13.68,5.14ZM1185.81,556.32v-123.96h28.86v123.96h-28.86Z" style="fill:#fff;"/><path d="M1297.48,559.84c-16.06,0-29.28-3.51-39.65-10.54-10.37-7.03-16.65-17.31-18.82-30.87l26.6-6.78c1.17,6.36,3.26,11.38,6.27,15.06,3.01,3.68,6.73,6.27,11.17,7.78,4.43,1.51,9.24,2.26,14.43,2.26,7.86,0,13.76-1.42,17.69-4.27,3.93-2.84,5.9-6.44,5.9-10.79s-1.88-7.86-5.65-10.04c-3.76-2.17-9.5-4.02-17.19-5.52l-7.78-1.25c-8.53-1.67-16.31-3.97-23.34-6.9-7.03-2.92-12.67-6.94-16.94-12.04-4.27-5.1-6.4-11.58-6.4-19.45,0-12.05,4.47-21.33,13.43-27.85,8.95-6.52,20.7-9.79,35.26-9.79s25.34,3.1,34.38,9.28c9.03,6.19,14.89,14.47,17.57,24.84l-26.6,8.03c-1.34-7.03-4.27-12-8.78-14.93-4.52-2.93-10.04-4.39-16.56-4.39s-11.84,1.17-15.43,3.51c-3.6,2.34-5.4,5.69-5.4,10.04s1.84,7.61,5.52,9.79c3.68,2.18,8.61,3.76,14.81,4.77l7.78,1.51c9.2,1.67,17.52,3.85,24.97,6.52,7.44,2.68,13.34,6.52,17.69,11.54,4.35,5.02,6.52,11.79,6.52,20.33,0,12.88-4.64,22.8-13.93,29.74-9.28,6.94-21.79,10.41-37.52,10.41Z" style="fill:#fff;"/><path d="M1420.44,558.33c-9.54,0-17.99-2.13-25.34-6.4-7.36-4.27-13.05-10.29-17.06-18.07-4.02-7.78-6.02-16.85-6.02-27.23v-74.28h28.61v72.02c0,10.04,2.47,17.48,7.4,22.33,4.93,4.85,11.92,7.28,20.95,7.28,10.2,0,18.28-3.34,24.22-10.04,5.94-6.69,8.91-16.31,8.91-28.86v-62.73h28.61v123.96h-28.11v-17.31h-4.27c-2.18,4.52-6.15,8.87-11.92,13.05-5.77,4.18-14.43,6.27-25.97,6.27Z" style="fill:#fff;"/><path d="M1560.72,559.84c-8.7,0-16.56-1.55-23.59-4.64-7.03-3.09-12.59-7.57-16.69-13.43-4.1-5.85-6.15-13.05-6.15-21.58s2.05-15.39,6.15-21.08c4.1-5.69,9.74-9.99,16.94-12.92,7.19-2.93,15.39-4.39,24.59-4.39h35.88v-7.53c0-6.52-2.01-11.83-6.02-15.93-4.02-4.1-10.29-6.15-18.82-6.15s-14.68,1.97-18.95,5.9c-4.27,3.93-7.07,8.99-8.41,15.18l-26.6-8.78c2.01-6.52,5.23-12.46,9.66-17.82,4.43-5.35,10.33-9.66,17.69-12.92,7.36-3.26,16.39-4.89,27.1-4.89,16.23,0,28.98,4.06,38.27,12.17,9.29,8.12,13.93,19.87,13.93,35.26v48.68c0,5.02,2.34,7.53,7.03,7.53h10.54v23.84h-20.33c-6.02,0-10.96-1.51-14.81-4.52-3.85-3.01-5.77-7.11-5.77-12.3v-.5h-4.27c-1,2.34-2.76,5.19-5.27,8.53-2.51,3.35-6.32,6.23-11.42,8.66-5.11,2.42-12.01,3.64-20.7,3.64ZM1565.49,536.25c9.54,0,17.31-2.72,23.34-8.16,6.02-5.43,9.03-12.75,9.03-21.96v-2.51h-34.13c-6.19,0-11.21,1.34-15.06,4.01-3.85,2.68-5.77,6.61-5.77,11.79s2.01,9.08,6.02,12.17c4.01,3.1,9.54,4.64,16.56,4.64Z" style="fill:#fff;"/><path d="M1662.1,556.32v-175.66h28.86v175.66h-28.86Z" style="fill:#fff;"/><path d="M1773.77,559.84c-16.06,0-29.28-3.51-39.65-10.54-10.38-7.03-16.65-17.31-18.82-30.87l26.6-6.78c1.17,6.36,3.26,11.38,6.27,15.06,3.01,3.68,6.73,6.27,11.17,7.78,4.43,1.51,9.24,2.26,14.43,2.26,7.86,0,13.76-1.42,17.69-4.27,3.93-2.84,5.9-6.44,5.9-10.79s-1.88-7.86-5.65-10.04c-3.76-2.17-9.5-4.02-17.19-5.52l-7.78-1.25c-8.53-1.67-16.31-3.97-23.34-6.9-7.03-2.92-12.67-6.94-16.94-12.04-4.27-5.1-6.4-11.58-6.4-19.45,0-12.05,4.47-21.33,13.42-27.85,8.95-6.52,20.7-9.79,35.26-9.79s25.34,3.1,34.38,9.28c9.03,6.19,14.89,14.47,17.57,24.84l-26.6,8.03c-1.34-7.03-4.27-12-8.78-14.93-4.52-2.93-10.04-4.39-16.56-4.39s-11.84,1.17-15.43,3.51c-3.6,2.34-5.39,5.69-5.39,10.04s1.84,7.61,5.52,9.79c3.68,2.18,8.61,3.76,14.81,4.77l7.78,1.51c9.2,1.67,17.52,3.85,24.97,6.52,7.44,2.68,13.34,6.52,17.69,11.54,4.35,5.02,6.52,11.79,6.52,20.33,0,12.88-4.64,22.8-13.93,29.74-9.29,6.94-21.79,10.41-37.52,10.41Z" style="fill:#fff;"/><path d="M426.38,715.91v-56.15h5.82v56.15h-5.82ZM430.67,695.46v-5.13h13.02c3.01,0,5.46-.57,7.35-1.72,1.89-1.15,3.29-2.68,4.21-4.6.92-1.92,1.38-4.05,1.38-6.4s-.46-4.56-1.38-6.47c-.92-1.92-2.32-3.43-4.21-4.56-1.89-1.12-4.34-1.69-7.35-1.69h-13.02v-5.13h12.03c4.49,0,8.21.74,11.15,2.22,2.94,1.48,5.13,3.52,6.59,6.13,1.46,2.6,2.18,5.59,2.18,8.96v1.07c0,3.32-.73,6.29-2.18,8.92-1.46,2.63-3.65,4.69-6.59,6.17-2.94,1.48-6.65,2.22-11.15,2.22h-12.03Z" style="fill:#f1f2f2;"/><path d="M474.95,715.91v-55.92h5.75v31.64l-1.69,1.3c0-3.78.55-7.07,1.65-9.88,1.1-2.81,2.76-4.99,4.98-6.55,2.22-1.56,5.02-2.34,8.39-2.34h.31c4.9,0,8.62,1.61,11.15,4.83,2.53,3.22,3.79,7.69,3.79,13.41v23.52h-5.67v-24.74c0-3.63-1-6.48-2.99-8.58-1.99-2.09-4.67-3.14-8.04-3.14-3.63,0-6.51,1.16-8.66,3.49-2.15,2.32-3.22,5.38-3.22,9.15v23.82h-5.75Z" style="fill:#f1f2f2;"/><path d="M543.36,717.21c-3.47,0-6.52-.6-9.15-1.8-2.63-1.2-4.85-2.81-6.66-4.83-1.81-2.02-3.19-4.28-4.14-6.78-.95-2.5-1.42-5.06-1.42-7.66v-1.07c0-2.6.48-5.17,1.46-7.7.97-2.53,2.38-4.79,4.21-6.78,1.84-1.99,4.07-3.59,6.7-4.79,2.63-1.2,5.63-1.8,9-1.8s6.45.6,9.08,1.8c2.63,1.2,4.86,2.8,6.7,4.79,1.84,1.99,3.23,4.25,4.17,6.78.94,2.53,1.42,5.09,1.42,7.7v1.07c0,2.6-.46,5.16-1.38,7.66-.92,2.5-2.29,4.76-4.1,6.78-1.81,2.02-4.05,3.63-6.7,4.83-2.66,1.2-5.72,1.8-9.19,1.8ZM543.36,712.08c3.37,0,6.22-.75,8.54-2.26,2.32-1.51,4.1-3.5,5.32-5.98,1.23-2.48,1.84-5.22,1.84-8.23s-.63-5.83-1.88-8.31c-1.25-2.48-3.05-4.44-5.4-5.9-2.35-1.46-5.16-2.18-8.43-2.18s-6,.73-8.35,2.18c-2.35,1.46-4.15,3.42-5.4,5.9-1.25,2.48-1.88,5.25-1.88,8.31s.61,5.76,1.84,8.23c1.23,2.48,3,4.47,5.32,5.98,2.32,1.51,5.14,2.26,8.46,2.26Z" style="fill:#f1f2f2;"/><path d="M571.78,679.75v-4.37h27.42v4.37h-27.42ZM592.77,716.37c-2.81,0-5.24-.41-7.28-1.23-2.04-.82-3.63-2.21-4.75-4.17-1.12-1.97-1.69-4.61-1.69-7.93v-40.45h5.52v41.29c0,2.35.64,4.15,1.92,5.4,1.28,1.25,3.09,1.88,5.44,1.88h7.28v5.21h-6.43Z" style="fill:#f1f2f2;"/><path d="M629.69,717.21c-3.47,0-6.52-.6-9.15-1.8-2.63-1.2-4.85-2.81-6.66-4.83-1.81-2.02-3.19-4.28-4.14-6.78-.95-2.5-1.42-5.06-1.42-7.66v-1.07c0-2.6.48-5.17,1.46-7.7.97-2.53,2.38-4.79,4.21-6.78,1.84-1.99,4.07-3.59,6.7-4.79,2.63-1.2,5.63-1.8,9-1.8s6.45.6,9.08,1.8c2.63,1.2,4.86,2.8,6.7,4.79s3.23,4.25,4.17,6.78c.94,2.53,1.42,5.09,1.42,7.7v1.07c0,2.6-.46,5.16-1.38,7.66-.92,2.5-2.29,4.76-4.1,6.78-1.81,2.02-4.05,3.63-6.7,4.83-2.66,1.2-5.72,1.8-9.19,1.8ZM629.69,712.08c3.37,0,6.22-.75,8.54-2.26,2.32-1.51,4.1-3.5,5.32-5.98,1.23-2.48,1.84-5.22,1.84-8.23s-.63-5.83-1.88-8.31c-1.25-2.48-3.05-4.44-5.4-5.9-2.35-1.46-5.16-2.18-8.43-2.18s-6,.73-8.35,2.18c-2.35,1.46-4.15,3.42-5.4,5.9-1.25,2.48-1.88,5.25-1.88,8.31s.61,5.76,1.84,8.23c1.23,2.48,3,4.47,5.32,5.98,2.32,1.51,5.14,2.26,8.46,2.26Z" style="fill:#f1f2f2;"/><path d="M664.39,715.91v-40.52h4.6v16.93h-.46c0-5.92,1.3-10.3,3.91-13.14,2.6-2.83,6.69-4.25,12.26-4.25h1.3v5.21h-2.37c-4.39,0-7.74,1.14-10.04,3.41-2.3,2.27-3.45,5.61-3.45,10v22.37h-5.75Z" style="fill:#f1f2f2;"/><path d="M713.26,717.21c-3.47,0-6.49-.6-9.04-1.8-2.55-1.2-4.65-2.81-6.28-4.83-1.63-2.02-2.85-4.28-3.64-6.78-.79-2.5-1.19-5.08-1.19-7.74v-1.07c0-2.6.39-5.16,1.19-7.66.79-2.5,2-4.75,3.64-6.74,1.63-1.99,3.69-3.59,6.17-4.79,2.48-1.2,5.37-1.8,8.69-1.8,4.24,0,7.78.95,10.61,2.83,2.83,1.89,4.97,4.3,6.4,7.24,1.43,2.94,2.14,6.09,2.14,9.46v2.99h-36.23v-4.44h32.25l-1.46,2.22c0-3.01-.52-5.66-1.57-7.93-1.05-2.27-2.58-4.06-4.6-5.36s-4.53-1.95-7.54-1.95c-3.17,0-5.8.74-7.89,2.22-2.09,1.48-3.66,3.45-4.71,5.9s-1.57,5.24-1.57,8.35.52,5.86,1.57,8.39,2.66,4.53,4.83,6.01c2.17,1.48,4.92,2.22,8.24,2.22,3.52,0,6.38-.8,8.58-2.41,2.2-1.61,3.55-3.51,4.06-5.71h5.36c-.51,2.71-1.58,5.04-3.22,7.01-1.63,1.97-3.7,3.49-6.21,4.56-2.5,1.07-5.36,1.61-8.58,1.61Z" style="fill:#f1f2f2;"/><path d="M755.55,716.98c-2.86,0-5.39-.51-7.58-1.53-2.2-1.02-3.89-2.5-5.09-4.44-1.2-1.94-1.8-4.29-1.8-7.05s.62-5,1.88-6.89c1.25-1.89,3.06-3.33,5.44-4.33,2.38-1,5.25-1.49,8.62-1.49h11.87v4.37h-12.26c-3.22,0-5.68.78-7.39,2.34-1.71,1.56-2.57,3.59-2.57,6.09s.89,4.58,2.68,6.09c1.79,1.51,4.21,2.26,7.28,2.26,1.89,0,3.7-.34,5.44-1.03,1.74-.69,3.19-1.86,4.37-3.52,1.17-1.66,1.81-3.95,1.92-6.86l1.69,2.37c-.21,3.01-.92,5.53-2.15,7.55-1.23,2.02-2.89,3.54-4.98,4.56-2.09,1.02-4.55,1.53-7.35,1.53ZM769.26,715.91v-12.18h-.92v-14.4c0-3.01-.79-5.32-2.38-6.93-1.58-1.61-4.03-2.41-7.35-2.41-1.53,0-3.08.03-4.63.08-1.56.05-3.04.11-4.44.19-1.41.08-2.64.17-3.72.27v-5.06c1.12-.1,2.27-.2,3.45-.31,1.17-.1,2.39-.17,3.64-.19,1.25-.02,2.46-.04,3.64-.04,4.14,0,7.47.51,10,1.53,2.53,1.02,4.38,2.62,5.55,4.79,1.17,2.17,1.76,5.04,1.76,8.62v26.04h-4.6Z" style="fill:#f1f2f2;"/><path d="M784.27,664.66v-4.67h11.64v4.67h-11.64ZM790.17,715.91v-55.92h5.75v55.92h-5.75Z" style="fill:#f1f2f2;"/><path d="M847.16,717.21c-4.09,0-7.55-.79-10.38-2.37-2.83-1.58-4.99-3.73-6.47-6.43-1.48-2.71-2.22-5.67-2.22-8.89h5.59c0,3.88,1.2,6.96,3.6,9.23,2.4,2.27,5.69,3.41,9.88,3.41,2.71,0,5.07-.51,7.09-1.53,2.02-1.02,3.57-2.48,4.67-4.37,1.1-1.89,1.65-4.08,1.65-6.59,0-3.83-1.2-6.92-3.6-9.27-2.4-2.35-5.64-3.52-9.73-3.52-1.63,0-3.04.19-4.21.57-1.18.38-2.22.86-3.14,1.42l-3.14-5.36,22.29-17.31-.61-1.23h-28.11v-4.98h33.48v8.27l-19.76,15.4-3.75.08c.92-.41,1.97-.75,3.14-1.03,1.17-.28,2.53-.42,4.06-.42,3.93,0,7.29.77,10.07,2.3,2.78,1.53,4.91,3.58,6.4,6.13,1.48,2.55,2.22,5.36,2.22,8.43v1.07c0,2.96-.74,5.75-2.22,8.35s-3.63,4.7-6.43,6.28c-2.81,1.58-6.26,2.37-10.34,2.37Z" style="fill:#f1f2f2;"/><path d="M881.41,716.22v-56.46h5.82v56.46h-5.82ZM885.7,716.22v-5.36h15.24c3.78,0,7.08-.61,9.92-1.84,2.83-1.23,5.22-2.9,7.16-5.02,1.94-2.12,3.4-4.56,4.37-7.32.97-2.76,1.46-5.69,1.46-8.81s-.5-6.2-1.49-8.96-2.46-5.18-4.4-7.28c-1.94-2.09-4.33-3.7-7.16-4.83-2.83-1.12-6.12-1.69-9.84-1.69h-15.24v-5.36h14.63c5,0,9.35.77,13.02,2.3,3.68,1.53,6.74,3.61,9.19,6.24,2.45,2.63,4.26,5.58,5.44,8.85,1.17,3.27,1.76,6.59,1.76,9.96v1.46c0,3.32-.59,6.61-1.76,9.88-1.17,3.27-2.96,6.24-5.36,8.92-2.4,2.68-5.45,4.83-9.15,6.43-3.7,1.61-8.08,2.41-13.14,2.41h-14.63Z" style="fill:#f1f2f2;"/><path d="M981.29,717.21c-4.7,0-8.66-.75-11.87-2.26-3.22-1.51-5.66-3.6-7.32-6.28-1.66-2.68-2.49-5.71-2.49-9.08h5.82c0,2.15.52,4.15,1.57,6.01,1.05,1.86,2.73,3.37,5.06,4.52,2.32,1.15,5.4,1.72,9.23,1.72,3.52,0,6.45-.51,8.77-1.53,2.32-1.02,4.06-2.4,5.21-4.14,1.15-1.74,1.72-3.68,1.72-5.82,0-2.71-1.06-4.97-3.18-6.78-2.12-1.81-5.3-2.9-9.54-3.26l-6.44-.61c-4.8-.41-8.62-1.9-11.45-4.48-2.83-2.58-4.25-5.99-4.25-10.23,0-3.22.77-6.05,2.3-8.5s3.72-4.39,6.55-5.82c2.83-1.43,6.24-2.15,10.23-2.15s7.49.73,10.38,2.18c2.88,1.46,5.09,3.46,6.63,6.01,1.53,2.55,2.3,5.52,2.3,8.89h-5.82c0-2.04-.46-3.96-1.38-5.75-.92-1.79-2.38-3.23-4.37-4.33-1.99-1.1-4.57-1.65-7.74-1.65s-5.5.51-7.47,1.53c-1.97,1.02-3.42,2.38-4.37,4.06-.95,1.69-1.42,3.52-1.42,5.52,0,2.5.89,4.62,2.68,6.36,1.79,1.74,4.37,2.73,7.74,2.99l6.43.61c3.78.31,7.01,1.14,9.69,2.49,2.68,1.35,4.74,3.12,6.17,5.29,1.43,2.17,2.14,4.71,2.14,7.62,0,3.27-.88,6.18-2.64,8.73-1.76,2.55-4.25,4.55-7.47,5.98-3.22,1.43-7.02,2.15-11.41,2.15Z" style="fill:#f1f2f2;"/><path d="M1031.09,717.06c-4.85,0-8.55-1.57-11.11-4.71s-3.83-7.52-3.83-13.14v-23.9h5.67v25.05c0,3.52.93,6.32,2.8,8.39,1.86,2.07,4.46,3.1,7.78,3.1s6.24-1.1,8.31-3.29c2.07-2.19,3.1-5.13,3.1-8.81v-24.44h5.75v40.6h-4.6v-16.93h.92c0,3.78-.54,7.01-1.61,9.69-1.07,2.68-2.68,4.75-4.83,6.2-2.14,1.46-4.85,2.18-8.12,2.18h-.23Z" style="fill:#f1f2f2;"/><path d="M1066.17,731.23v-55.84h4.6v17.39l-1.38.15c.2-4.08,1.08-7.53,2.64-10.34,1.56-2.81,3.68-4.94,6.36-6.4,2.68-1.46,5.68-2.18,9-2.18,2.96,0,5.66.57,8.08,1.72,2.42,1.15,4.49,2.71,6.21,4.67,1.71,1.97,3.01,4.21,3.91,6.74.89,2.53,1.34,5.17,1.34,7.93v1.07c0,2.76-.46,5.4-1.38,7.93-.92,2.53-2.23,4.78-3.94,6.74-1.71,1.97-3.78,3.52-6.21,4.67-2.43,1.15-5.15,1.72-8.16,1.72-3.22,0-6.17-.73-8.85-2.18-2.68-1.46-4.85-3.61-6.51-6.47-1.66-2.86-2.57-6.38-2.72-10.57l2.76,5.75v27.5h-5.75ZM1086.47,712.16c3.06,0,5.69-.73,7.89-2.18,2.2-1.46,3.88-3.45,5.06-5.98,1.17-2.53,1.76-5.32,1.76-8.39s-.6-5.99-1.8-8.46c-1.2-2.48-2.9-4.44-5.09-5.9-2.2-1.46-4.8-2.18-7.81-2.18-2.76,0-5.26.61-7.51,1.84-2.25,1.23-4.02,2.95-5.32,5.17-1.3,2.22-1.95,4.84-1.95,7.85v3.75c0,2.86.65,5.38,1.95,7.55,1.3,2.17,3.08,3.87,5.32,5.09,2.25,1.23,4.75,1.84,7.51,1.84Z" style="fill:#f1f2f2;"/><path d="M1120.18,731.23v-55.84h4.6v17.39l-1.38.15c.2-4.08,1.08-7.53,2.64-10.34,1.56-2.81,3.68-4.94,6.36-6.4,2.68-1.46,5.68-2.18,9-2.18,2.96,0,5.66.57,8.08,1.72,2.42,1.15,4.49,2.71,6.21,4.67,1.71,1.97,3.01,4.21,3.91,6.74.89,2.53,1.34,5.17,1.34,7.93v1.07c0,2.76-.46,5.4-1.38,7.93-.92,2.53-2.23,4.78-3.94,6.74-1.71,1.97-3.78,3.52-6.21,4.67-2.43,1.15-5.15,1.72-8.16,1.72-3.22,0-6.17-.73-8.85-2.18-2.68-1.46-4.85-3.61-6.51-6.47-1.66-2.86-2.57-6.38-2.72-10.57l2.76,5.75v27.5h-5.75ZM1140.48,712.16c3.06,0,5.69-.73,7.89-2.18,2.2-1.46,3.88-3.45,5.06-5.98,1.17-2.53,1.76-5.32,1.76-8.39s-.6-5.99-1.8-8.46c-1.2-2.48-2.9-4.44-5.09-5.9-2.2-1.46-4.8-2.18-7.81-2.18-2.76,0-5.26.61-7.51,1.84-2.25,1.23-4.02,2.95-5.32,5.17-1.3,2.22-1.95,4.84-1.95,7.85v3.75c0,2.86.65,5.38,1.95,7.55,1.3,2.17,3.08,3.87,5.32,5.09,2.25,1.23,4.75,1.84,7.51,1.84Z" style="fill:#f1f2f2;"/><path d="M1168.67,664.66v-4.67h11.64v4.67h-11.64ZM1174.56,715.91v-55.92h5.75v55.92h-5.75Z" style="fill:#f1f2f2;"/><path d="M1213.71,717.21c-3.47,0-6.49-.6-9.04-1.8-2.55-1.2-4.65-2.81-6.28-4.83-1.63-2.02-2.85-4.28-3.64-6.78-.79-2.5-1.19-5.08-1.19-7.74v-1.07c0-2.6.39-5.16,1.19-7.66.79-2.5,2-4.75,3.64-6.74,1.63-1.99,3.69-3.59,6.17-4.79,2.48-1.2,5.37-1.8,8.69-1.8,4.24,0,7.78.95,10.61,2.83,2.83,1.89,4.97,4.3,6.4,7.24,1.43,2.94,2.15,6.09,2.15,9.46v2.99h-36.23v-4.44h32.25l-1.46,2.22c0-3.01-.52-5.66-1.57-7.93-1.05-2.27-2.58-4.06-4.6-5.36-2.02-1.3-4.53-1.95-7.55-1.95-3.17,0-5.8.74-7.89,2.22-2.09,1.48-3.67,3.45-4.71,5.9-1.05,2.45-1.57,5.24-1.57,8.35s.52,5.86,1.57,8.39c1.05,2.53,2.65,4.53,4.83,6.01,2.17,1.48,4.91,2.22,8.23,2.22,3.52,0,6.38-.8,8.58-2.41,2.2-1.61,3.55-3.51,4.06-5.71h5.36c-.51,2.71-1.58,5.04-3.22,7.01-1.63,1.97-3.7,3.49-6.21,4.56-2.5,1.07-5.36,1.61-8.58,1.61Z" style="fill:#f1f2f2;"/><path d="M1245.04,715.91v-40.6h4.6v17.08h-.92c0-3.73.52-6.94,1.57-9.65,1.05-2.71,2.62-4.81,4.71-6.32,2.09-1.51,4.75-2.26,7.97-2.26h.23c3.22,0,5.87.74,7.97,2.22,2.09,1.48,3.65,3.58,4.67,6.28,1.02,2.71,1.53,5.95,1.53,9.73h-1.84c0-3.73.52-6.94,1.57-9.65,1.05-2.71,2.63-4.81,4.75-6.32,2.12-1.51,4.79-2.26,8-2.26h.23c3.22,0,5.89.74,8,2.22,2.12,1.48,3.7,3.58,4.75,6.28,1.05,2.71,1.57,5.95,1.57,9.73v23.52h-5.75v-24.82c0-3.57-.87-6.41-2.6-8.5-1.74-2.09-4.24-3.14-7.51-3.14s-6.04,1.09-8,3.26c-1.97,2.17-2.95,5.09-2.95,8.77v24.44h-5.75v-24.82c0-3.57-.87-6.41-2.6-8.5-1.74-2.09-4.24-3.14-7.51-3.14s-6.04,1.09-8,3.26c-1.97,2.17-2.95,5.09-2.95,8.77v24.44h-5.75Z" style="fill:#f1f2f2;"/><path d="M1337.27,717.21c-3.47,0-6.49-.6-9.04-1.8-2.55-1.2-4.65-2.81-6.28-4.83-1.63-2.02-2.85-4.28-3.64-6.78-.79-2.5-1.19-5.08-1.19-7.74v-1.07c0-2.6.39-5.16,1.19-7.66.79-2.5,2-4.75,3.64-6.74,1.63-1.99,3.69-3.59,6.17-4.79,2.48-1.2,5.37-1.8,8.69-1.8,4.24,0,7.78.95,10.61,2.83,2.83,1.89,4.97,4.3,6.4,7.24,1.43,2.94,2.15,6.09,2.15,9.46v2.99h-36.23v-4.44h32.25l-1.46,2.22c0-3.01-.52-5.66-1.57-7.93-1.05-2.27-2.58-4.06-4.6-5.36-2.02-1.3-4.53-1.95-7.55-1.95-3.17,0-5.8.74-7.89,2.22-2.09,1.48-3.67,3.45-4.71,5.9-1.05,2.45-1.57,5.24-1.57,8.35s.52,5.86,1.57,8.39c1.05,2.53,2.65,4.53,4.83,6.01,2.17,1.48,4.91,2.22,8.23,2.22,3.52,0,6.38-.8,8.58-2.41,2.2-1.61,3.55-3.51,4.06-5.71h5.36c-.51,2.71-1.58,5.04-3.22,7.01-1.63,1.97-3.7,3.49-6.21,4.56-2.5,1.07-5.36,1.61-8.58,1.61Z" style="fill:#f1f2f2;"/><path d="M1368.6,715.91v-40.52h4.6v17.01h-.92c0-3.78.56-7.02,1.68-9.73,1.12-2.71,2.81-4.8,5.06-6.28,2.25-1.48,5.08-2.22,8.5-2.22h.23c5.11,0,8.91,1.6,11.41,4.79,2.5,3.19,3.75,7.67,3.75,13.44v23.52h-5.67v-24.74c0-3.52-.97-6.36-2.91-8.5-1.94-2.15-4.65-3.22-8.12-3.22s-6.45,1.11-8.62,3.33c-2.17,2.22-3.25,5.15-3.25,8.77v24.36h-5.75Z" style="fill:#f1f2f2;"/><path d="M1412.57,679.75v-4.37h27.42v4.37h-27.42ZM1433.56,716.37c-2.81,0-5.24-.41-7.28-1.23-2.04-.82-3.63-2.21-4.75-4.17-1.12-1.97-1.68-4.61-1.68-7.93v-40.45h5.52v41.29c0,2.35.64,4.15,1.92,5.4,1.28,1.25,3.09,1.88,5.44,1.88h7.28v5.21h-6.43Z" style="fill:#f1f2f2;"/><path d="M1473.47,715.91v-55.92h7.58l17.62,38.68h1.38l17.54-38.68h7.74v55.92h-5.82v-49.41l.46.08-17.01,37.54h-7.66l-17.08-37.54.61-.08v49.41h-5.36Z" style="fill:#f1f2f2;"/><path d="M1561.25,717.21c-3.47,0-6.52-.6-9.15-1.8-2.63-1.2-4.85-2.81-6.66-4.83-1.81-2.02-3.19-4.28-4.14-6.78-.95-2.5-1.42-5.06-1.42-7.66v-1.07c0-2.6.48-5.17,1.46-7.7.97-2.53,2.38-4.79,4.21-6.78,1.84-1.99,4.07-3.59,6.7-4.79,2.63-1.2,5.63-1.8,9-1.8s6.45.6,9.08,1.8c2.63,1.2,4.86,2.8,6.7,4.79s3.23,4.25,4.17,6.78c.94,2.53,1.42,5.09,1.42,7.7v1.07c0,2.6-.46,5.16-1.38,7.66-.92,2.5-2.29,4.76-4.1,6.78-1.81,2.02-4.05,3.63-6.7,4.83-2.66,1.2-5.72,1.8-9.19,1.8ZM1561.25,712.08c3.37,0,6.22-.75,8.54-2.26,2.32-1.51,4.1-3.5,5.32-5.98,1.23-2.48,1.84-5.22,1.84-8.23s-.63-5.83-1.88-8.31c-1.25-2.48-3.05-4.44-5.4-5.9-2.35-1.46-5.16-2.18-8.43-2.18s-6,.73-8.35,2.18c-2.35,1.46-4.15,3.42-5.4,5.9-1.25,2.48-1.88,5.25-1.88,8.31s.61,5.76,1.84,8.23c1.23,2.48,3,4.47,5.32,5.98,2.32,1.51,5.14,2.26,8.46,2.26Z" style="fill:#f1f2f2;"/><path d="M1613.04,717.21c-3.42,0-6.4-.6-8.92-1.8s-4.63-2.83-6.32-4.9c-1.69-2.07-2.95-4.35-3.79-6.86-.84-2.5-1.26-5.03-1.26-7.58v-1.07c0-2.6.42-5.14,1.26-7.62.84-2.48,2.11-4.72,3.79-6.74,1.68-2.02,3.79-3.63,6.32-4.83,2.53-1.2,5.45-1.8,8.77-1.8s6.37.61,9,1.84c2.63,1.23,4.76,2.96,6.4,5.21,1.63,2.25,2.6,4.9,2.91,7.97h-5.52c-.46-2.81-1.77-5.14-3.94-7.01-2.17-1.86-5.12-2.8-8.85-2.8-3.22,0-5.89.73-8.01,2.18-2.12,1.46-3.71,3.42-4.79,5.9-1.07,2.48-1.61,5.22-1.61,8.23s.54,5.71,1.61,8.23,2.68,4.55,4.83,6.05c2.14,1.51,4.85,2.26,8.12,2.26,2.5,0,4.69-.45,6.55-1.34,1.86-.89,3.37-2.11,4.52-3.64,1.15-1.53,1.83-3.22,2.03-5.06h5.52c-.21,3.06-1.16,5.73-2.87,8-1.71,2.27-3.92,4.04-6.63,5.29-2.71,1.25-5.75,1.88-9.12,1.88Z" style="fill:#f1f2f2;"/><path d="M1643.83,715.91v-55.92h5.75v55.92h-5.75ZM1671.41,715.91l-16.32-19h-6.59l19.23-21.53h6.13l-17.24,19.23.38-3.14,21.14,24.44h-6.74Z" style="fill:#f1f2f2;"/><path d="M1701.05,717.06c-4.85,0-8.55-1.57-11.11-4.71s-3.83-7.52-3.83-13.14v-23.9h5.67v25.05c0,3.52.93,6.32,2.8,8.39,1.86,2.07,4.46,3.1,7.78,3.1s6.24-1.1,8.31-3.29c2.07-2.19,3.1-5.13,3.1-8.81v-24.44h5.75v40.6h-4.6v-16.93h.92c0,3.78-.54,7.01-1.61,9.69-1.07,2.68-2.68,4.75-4.83,6.2-2.14,1.46-4.85,2.18-8.12,2.18h-.23Z" style="fill:#f1f2f2;"/><path d="M1736.14,731.23v-55.84h4.6v17.39l-1.38.15c.2-4.08,1.08-7.53,2.64-10.34,1.56-2.81,3.68-4.94,6.36-6.4,2.68-1.46,5.68-2.18,9-2.18,2.96,0,5.66.57,8.08,1.72,2.42,1.15,4.49,2.71,6.21,4.67,1.71,1.97,3.01,4.21,3.91,6.74.89,2.53,1.34,5.17,1.34,7.93v1.07c0,2.76-.46,5.4-1.38,7.93-.92,2.53-2.23,4.78-3.94,6.74-1.71,1.97-3.78,3.52-6.21,4.67-2.43,1.15-5.15,1.72-8.16,1.72-3.22,0-6.17-.73-8.85-2.18-2.68-1.46-4.85-3.61-6.51-6.47-1.66-2.86-2.57-6.38-2.72-10.57l2.76,5.75v27.5h-5.75ZM1756.44,712.16c3.06,0,5.69-.73,7.89-2.18,2.2-1.46,3.88-3.45,5.06-5.98,1.17-2.53,1.76-5.32,1.76-8.39s-.6-5.99-1.8-8.46c-1.2-2.48-2.9-4.44-5.09-5.9-2.2-1.46-4.8-2.18-7.81-2.18-2.76,0-5.26.61-7.51,1.84-2.25,1.23-4.02,2.95-5.32,5.17-1.3,2.22-1.95,4.84-1.95,7.85v3.75c0,2.86.65,5.38,1.95,7.55,1.3,2.17,3.08,3.87,5.32,5.09,2.25,1.23,4.75,1.84,7.51,1.84Z" style="fill:#f1f2f2;"/><path d="M1802.94,717.06c-5.21,0-9.22-1.14-12.03-3.41-2.81-2.27-4.24-5.32-4.29-9.15h5.36c.1,1.94.98,3.7,2.64,5.29,1.66,1.58,4.43,2.38,8.31,2.38,3.63,0,6.34-.75,8.16-2.26,1.81-1.51,2.72-3.33,2.72-5.48,0-1.99-.75-3.54-2.26-4.63-1.51-1.1-3.69-1.8-6.55-2.11l-4.6-.46c-3.68-.41-6.65-1.54-8.92-3.41-2.27-1.86-3.41-4.43-3.41-7.7,0-2.4.61-4.49,1.84-6.28,1.23-1.79,2.95-3.18,5.17-4.17,2.22-1,4.84-1.49,7.85-1.49,4.34,0,7.88,1.02,10.61,3.06,2.73,2.04,4.12,4.95,4.17,8.73h-5.36c-.05-1.94-.87-3.57-2.45-4.9-1.58-1.33-3.91-1.99-6.97-1.99s-5.53.69-7.09,2.07-2.34,3.06-2.34,5.06c0,1.69.59,3.08,1.76,4.17,1.17,1.1,3.01,1.77,5.52,2.03l4.6.46c4.08.46,7.42,1.64,10,3.52,2.58,1.89,3.87,4.6,3.87,8.12,0,2.4-.68,4.56-2.03,6.47-1.35,1.92-3.26,3.41-5.71,4.48-2.45,1.07-5.31,1.61-8.58,1.61Z" style="fill:#f1f2f2;"/></svg>
