<?xml version="1.0" encoding="UTF-8"?>
<svg id="Layer_1" data-name="Layer 1" xmlns="http://www.w3.org/2000/svg" width="1802" height="405.191406" viewBox="0 0 1802 405.191406">
  <g id="Icon">
    <path d="M261.457665,134.352076c-41.169116-2.16672-91.92067,1.121394-131.353018,15.900833-11.960289,4.482814-37.315716,16.36937-12.868756,28.556926,35.981999,17.938304,83.868787,13.954759,119.071572,36.90261,30.243093,19.714952,24.626286,56.335815,3.191844,81.857095-44.230967,52.663804-143.989662,63.13407-203.062212,53.136337-12.194004-2.063771-24.95583-5.157249-36.153308-11.216045v12.189082c0,.68308,1.115049,5.043911,1.421653,6.054727,7.351478,24.234456,34.867814,26.079907,53.339316,27.535357,49.958527,3.936321,105.329129,2.932697,155.415675.573593,24.906251-1.173122,66.328691,1.509577,71.426515-36.549881l.037246-212.789317c-.345824-1.509359-18.073632-2.025411-20.466529-2.151318Z" fill="#fff"/>
    <path d="M8.084936,322.27188c34.212302,1.964964,72.518871-4.349206,105.459615-14.936224,16.579089-5.328491,50.082353-18.312974,60.556979-34.490977,6.845198-10.572124.929187-14.590543-7.148843-18.232039-20.071618-9.048307-45.523245-12.546533-66.749008-18.277084-28.26632-7.631362-79.478892-20.995238-66.754682-68.55403,12.25345-45.799581,81.58689-57.221451,115.970747-60.177179,27.631898-2.375306,59.271114-2.157566,86.738487,1.852062,14.760676,2.154805,29.601271,5.941607,43.207061,13.008022-7.845425-33.513654-40.112897-39.311481-65.351405-42.215045-15.532244-1.786892-30.886888-1.942369-46.453912-2.36419-34.186032-.926176-70.983505-1.815009-104.947662,2.364553-24.171806,2.974545-50.396727,10.403788-60.048849,39.846495-3.432959,10.4715-2.176818,22.479459-2.256367,33.608538-.039466,5.537586.009497,11.006296.000247,16.596192-.083373,50.247159.249132,100.578886-.307344,150.770974,2.327284.540972,5.612984,1.057968,8.084936,1.199931Z" fill="#fff"/>
    <path d="M217.544649,70.738063c7.773645.94216,15.54507,2.509568,23.226216,4.159728.849761.386875.715082-.903.748381-1.486982.665749-11.658863,0-25.001741,0-36.86454,0-3.046762-4.109931-6.325649-6.214229-7.543307-14.225166-8.231691-42.615559-9.784933-58.658152-10.566494-29.70413-1.447096-60.629991-2.029189-90.314388,1.16553-9.619932,1.035337-36.539708,4.848039-43.39169,11.904174-.705955.727071-2.78756,3.617267-2.78756,4.445507v38.945602l21.954782-4.160527c50.88722-2.887725,104.679167-6.150047,155.436641.001308ZM57.816901,30.897634l9.584166-2.378103.511706,35.08346-10.095872,1.186273V30.897634Z" fill="#fff"/>
  </g>
  <g>
    <path d="M415.220215,222.997559c-13.768555,0-25.939453-2.45166-36.521484-7.355957-10.582031-4.903809-18.885742-12.001465-24.906738-21.292969-6.025391-9.291992-9.033691-20.648438-9.033691-34.069824v-6.710449h30.713867v6.710449c0,11.873047,3.61377,20.736816,10.840332,26.584473,7.227051,5.852051,16.861328,8.775879,28.907715,8.775879,12.215332,0,21.422363-2.492676,27.616699-7.485352,6.194336-4.988281,9.291504-11.440918,9.291504-19.357422,0-5.331543-1.463867-9.678711-4.387695-13.03418-2.927734-3.355469-7.186523-6.06543-12.775879-8.130371-5.59375-2.064453-12.348633-4.040527-20.26123-5.936035l-7.742676-1.548828c-11.873047-2.750488-22.156738-6.234863-30.843262-10.453125-8.690918-4.214355-15.356934-9.678711-20.00293-16.38916-4.645996-6.710938-6.96875-15.486328-6.96875-26.32666s2.581055-20.131836,7.743164-27.875,12.473633-13.679199,21.938477-17.809082c9.460938-4.129395,20.55957-6.194336,33.294922-6.194336,12.731934,0,24.088379,2.153809,34.069824,6.452637,9.977051,4.303223,17.849121,10.755371,23.616211,19.357422,5.762695,8.606445,8.646484,19.35791,8.646484,32.262695v8.517578h-30.714355v-8.517578c0-7.395996-1.463867-13.33252-4.387695-17.808594-2.927734-4.472656-7.057617-7.743164-12.388672-9.808105-5.335449-2.064941-11.614746-3.097168-18.841797-3.097168-10.670898,0-18.756348,2.064941-24.26123,6.194336-5.508789,4.129883-8.259277,9.981445-8.259277,17.550781,0,4.819336,1.246094,8.904785,3.742188,12.260254,2.492676,3.35498,6.194824,6.109375,11.098633,8.259277,4.903809,2.15332,11.054199,4.000488,18.454102,5.548828l7.743164,1.806641c12.388672,2.754395,23.229004,6.23877,32.520996,10.453125,9.291504,4.21875,16.558594,9.767578,21.80957,16.647949,5.246582,6.883789,7.87207,15.83252,7.87207,26.842285,0,10.840332-2.798828,20.390137-8.388184,28.649414-5.59375,8.259277-13.421387,14.711914-23.487305,19.357422-10.065918,4.645996-21.983398,6.96875-35.74707,6.96875Z" fill="#fff"/>
    <path d="M554.594727,221.449219c-9.807617,0-18.498535-2.193848-26.068359-6.581543-7.57373-4.387695-13.420898-10.58252-17.550781-18.583496-4.129395-8.000977-6.194336-17.333008-6.194336-28.003906v-76.398438h29.42334v74.075195c0,10.324219,2.536621,17.982422,7.614258,22.971191,5.073242,4.992676,12.259766,7.484863,21.55127,7.484863,10.493652,0,18.797363-3.439941,24.906738-10.32373,6.105957-6.880371,9.162598-16.776855,9.162598-29.681641v-64.525879h29.423828v127.502441h-28.907227v-17.809082h-4.387695c-2.238281,4.645996-6.32373,9.122559-12.260254,13.421387-5.936035,4.303223-14.84082,6.452637-26.713379,6.452637Z" fill="#fff"/>
    <path d="M659.384277,271.004395V91.881836h29.165527v16.776855h4.387695c2.923828-5.331543,7.614258-10.065918,14.066406-14.195801,6.452637-4.129395,15.700195-6.194336,27.746094-6.194336,10.324219,0,19.914062,2.540527,28.77832,7.614258,8.860352,5.077148,15.958008,12.517578,21.293457,22.325684,5.331543,9.807617,8.000977,21.595703,8.000977,35.359863v4.129395c0,13.768555-2.669434,25.552246-8.000977,35.360352-5.335449,9.807617-12.388672,17.252441-21.164551,22.325684-8.775391,5.073242-18.413574,7.61377-28.907227,7.61377-8.089844,0-14.84082-.947754-20.260742-2.838867-5.42041-1.891602-9.808105-4.387695-13.163574-7.484863-3.35498-3.097656-5.980469-6.194824-7.87207-9.291992h-4.387695v67.622559h-29.681641ZM725.974609,197.1875c10.840332,0,19.744629-3.484375,26.713379-10.453125s10.453125-16.905762,10.453125-29.810547v-2.581055c0-13.074707-3.528809-23.055664-10.582031-29.939941-7.057617-6.879883-15.91748-10.324219-26.584473-10.324219-10.670898,0-19.575195,3.444336-26.713379,10.324219-7.14209,6.884277-10.711426,16.865234-10.711426,29.939941v2.581055c0,12.904785,3.569336,22.841797,10.711426,29.810547,7.138184,6.96875,16.04248,10.453125,26.713379,10.453125Z" fill="#fff"/>
    <path d="M819.148926,271.004395V91.881836h29.165527v16.776855h4.387695c2.923828-5.331543,7.614258-10.065918,14.066406-14.195801,6.452637-4.129395,15.700195-6.194336,27.746094-6.194336,10.324219,0,19.914062,2.540527,28.77832,7.614258,8.860352,5.077148,15.958008,12.517578,21.293457,22.325684,5.331543,9.807617,8.000977,21.595703,8.000977,35.359863v4.129395c0,13.768555-2.669434,25.552246-8.000977,35.360352-5.335449,9.807617-12.388672,17.252441-21.164551,22.325684-8.775391,5.073242-18.413574,7.61377-28.907227,7.61377-8.089844,0-14.84082-.947754-20.260742-2.838867-5.42041-1.891602-9.808105-4.387695-13.163574-7.484863-3.35498-3.097656-5.980469-6.194824-7.87207-9.291992h-4.387695v67.622559h-29.681641ZM885.739258,197.1875c10.840332,0,19.744629-3.484375,26.713379-10.453125s10.453125-16.905762,10.453125-29.810547v-2.581055c0-13.074707-3.528809-23.055664-10.582031-29.939941-7.057617-6.879883-15.91748-10.324219-26.584473-10.324219-10.670898,0-19.575195,3.444336-26.713379,10.324219-7.14209,6.884277-10.711426,16.865234-10.711426,29.939941v2.581055c0,12.904785,3.569336,22.841797,10.711426,29.810547,7.138184,6.96875,16.04248,10.453125,26.713379,10.453125Z" fill="#fff"/>
    <path d="M1013.241699,219.384277l-48.006836-180.671387h32.004395l40.780273,160.797363h3.613281l41.038086-160.797363h32.004883l-48.265137,180.671387h-53.168945Z" fill="#fff"/>
    <path d="M1147.970703,75.621582c-5.335449,0-9.937012-1.762207-13.808594-5.291016-3.871582-3.524902-5.807129-8.214844-5.807129-14.066406,0-5.847656,1.935547-10.538086,5.807129-14.066895,3.871582-3.524414,8.473145-5.291016,13.808594-5.291016,5.678223,0,10.364258,1.766602,14.066406,5.291016,3.698242,3.528809,5.549316,8.219238,5.549316,14.066895,0,5.851562-1.851074,10.541504-5.549316,14.066406-3.702148,3.528809-8.388184,5.291016-14.066406,5.291016ZM1133.258789,219.384277v-127.502441h29.681641v127.502441h-29.681641Z" fill="#fff"/>
    <path d="M1248.114258,222.997559c-16.518555,0-30.113281-3.613281-40.780273-10.840332-10.670898-7.226562-17.123047-17.808594-19.357422-31.746094l27.358887-6.96875c1.20166,6.541016,3.355469,11.703125,6.452637,15.48584,3.097168,3.787109,6.924316,6.452637,11.485352,8.000977,4.557129,1.548828,9.505371,2.323242,14.84082,2.323242,8.085938,0,14.151367-1.459961,18.196289-4.387695,4.041016-2.923828,6.06543-6.62207,6.06543-11.098633,0-4.645508-1.936035-8.085938-5.807617-10.32373-3.871094-2.234375-9.767578-4.129883-17.679688-5.678223l-8.001465-1.290527c-8.775391-1.718262-16.776367-4.085449-24.003418-7.098145-7.226562-3.008301-13.03418-7.138184-17.421875-12.388672-4.387695-5.246582-6.581543-11.913086-6.581543-20.00293,0-12.388672,4.601562-21.938477,13.808594-28.649414,9.203125-6.710449,21.293457-10.065918,36.263184-10.065918,14.280273,0,26.068359,3.186035,35.359863,9.549805,9.291992,6.367676,15.312988,14.885254,18.067383,25.552246l-27.358887,8.259277c-1.379395-7.227051-4.387695-12.344727-9.033691-15.357422-4.645508-3.008301-10.32373-4.516602-17.034668-4.516602-6.883789,0-12.174805,1.206055-15.873047,3.613281-3.702148,2.411621-5.549316,5.852051-5.549316,10.324219,0,4.476562,1.891602,7.831543,5.678223,10.065918,3.782715,2.238281,8.860352,3.871582,15.228027,4.903809l8.000977,1.548828c9.461426,1.722168,18.022949,3.960449,25.681152,6.710449,7.654297,2.754395,13.719727,6.710938,18.196289,11.873047,4.472656,5.161621,6.710449,12.130371,6.710449,20.90625,0,13.251465-4.774902,23.446777-14.324219,30.584961-9.549805,7.138184-22.414551,10.710938-38.586426,10.710938Z" fill="#fff"/>
    <path d="M1374.583984,221.449219c-9.807617,0-18.498535-2.193848-26.068359-6.581543-7.57373-4.387695-13.420898-10.58252-17.550781-18.583496-4.129395-8.000977-6.194336-17.333008-6.194336-28.003906v-76.398438h29.42334v74.075195c0,10.324219,2.536621,17.982422,7.614258,22.971191,5.073242,4.992676,12.259766,7.484863,21.55127,7.484863,10.493652,0,18.797363-3.439941,24.906738-10.32373,6.105957-6.880371,9.162598-16.776855,9.162598-29.681641v-64.525879h29.423828v127.502441h-28.907227v-17.809082h-4.387695c-2.238281,4.645996-6.32373,9.122559-12.260254,13.421387-5.936035,4.303223-14.84082,6.452637-26.713379,6.452637Z" fill="#fff"/>
    <path d="M1518.862793,222.997559c-8.94873,0-17.034668-1.592773-24.261719-4.774902-7.226562-3.181641-12.949219-7.783203-17.163574-13.808105-4.218262-6.020996-6.32373-13.421387-6.32373-22.196777,0-8.602051,2.105469-15.829102,6.32373-21.680664,4.214355-5.847656,10.021484-10.279785,17.421875-13.29248,7.395996-3.008301,15.828613-4.516602,25.293945-4.516602h36.908203v-7.743164c0-6.710449-2.064453-12.170898-6.194336-16.38916-4.129395-4.214355-10.582031-6.32373-19.357422-6.32373-8.605957,0-15.099121,2.024414-19.486816,6.06543-4.387695,4.044922-7.270996,9.251465-8.646484,15.615234l-27.358398-9.033691c2.064453-6.710449,5.375488-12.816406,9.936523-18.325195,4.557129-5.504883,10.622559-9.937012,18.196289-13.291992,7.569824-3.355469,16.861328-5.033203,27.875-5.033203,16.687988,0,29.810547,4.173828,39.360352,12.518066,9.549805,8.348145,14.324707,20.43457,14.324707,36.263184v50.071777c0,5.162109,2.407715,7.743164,7.227051,7.743164h10.840332v24.519531h-20.90625c-6.194824,0-11.271973-1.548828-15.228027-4.645996-3.960449-3.097168-5.936523-7.311523-5.936523-12.646973v-.516113h-4.387695c-1.032227,2.411621-2.838867,5.335449-5.419922,8.775391-2.581055,3.444336-6.49707,6.412109-11.743652,8.904785-5.250977,2.492188-12.348633,3.742188-21.293457,3.742188ZM1523.766602,198.736328c9.808105,0,17.809082-2.794922,24.003418-8.388672,6.194336-5.589355,9.291504-13.118652,9.291504-22.583496v-2.581055h-35.101562c-6.367676,0-11.529785,1.378906-15.486328,4.129395-3.959961,2.754395-5.936035,6.799316-5.936035,12.130859,0,5.162109,2.064941,9.335938,6.194336,12.518066,4.129395,3.185547,9.808105,4.774902,17.034668,4.774902Z" fill="#fff"/>
    <path d="M1623.135742,219.384277V38.712891h29.681641v180.671387h-29.681641Z" fill="#fff"/>
    <path d="M1737.991211,222.997559c-16.518555,0-30.113281-3.613281-40.780273-10.840332-10.670898-7.226562-17.123047-17.808594-19.357422-31.746094l27.358887-6.96875c1.20166,6.541016,3.355469,11.703125,6.452637,15.48584,3.097168,3.787109,6.924316,6.452637,11.485352,8.000977,4.557129,1.548828,9.505371,2.323242,14.84082,2.323242,8.085938,0,14.151367-1.459961,18.196289-4.387695,4.041016-2.923828,6.06543-6.62207,6.06543-11.098633,0-4.645508-1.936035-8.085938-5.807617-10.32373-3.871094-2.234375-9.767578-4.129883-17.679688-5.678223l-8.001465-1.290527c-8.775391-1.718262-16.776367-4.085449-24.003418-7.098145-7.226562-3.008301-13.03418-7.138184-17.421875-12.388672-4.387695-5.246582-6.581543-11.913086-6.581543-20.00293,0-12.388672,4.601562-21.938477,13.808594-28.649414,9.203125-6.710449,21.293457-10.065918,36.263184-10.065918,14.280273,0,26.068359,3.186035,35.359863,9.549805,9.291992,6.367676,15.312988,14.885254,18.067383,25.552246l-27.358887,8.259277c-1.379395-7.227051-4.387695-12.344727-9.033691-15.357422-4.645508-3.008301-10.32373-4.516602-17.034668-4.516602-6.883789,0-12.174805,1.206055-15.873047,3.613281-3.702148,2.411621-5.549316,5.852051-5.549316,10.324219,0,4.476562,1.891602,7.831543,5.678223,10.065918,3.782715,2.238281,8.860352,3.871582,15.228027,4.903809l8.000977,1.548828c9.461426,1.722168,18.022949,3.960449,25.681152,6.710449,7.654297,2.754395,13.719727,6.710938,18.196289,11.873047,4.472656,5.161621,6.710449,12.130371,6.710449,20.90625,0,13.251465-4.774902,23.446777-14.324219,30.584961-9.549805,7.138184-22.414551,10.710938-38.586426,10.710938Z" fill="#fff"/>
  </g>
  <g>
    <path d="M352.155762,383.524902v-57.752441h5.987793v57.752441h-5.987793ZM356.567871,362.488281v-5.278809h13.394043c3.098633,0,5.620117-.59082,7.563965-1.772949,1.942383-1.181641,3.387695-2.757324,4.333496-4.727051.945312-1.969727,1.417969-4.162598,1.417969-6.579102,0-2.468262-.472656-4.687988-1.417969-6.657715-.945801-1.969727-2.391113-3.531738-4.333496-4.687988-1.943848-1.154785-4.465332-1.733398-7.563965-1.733398h-13.394043v-5.278809h12.370117c4.621094,0,8.442383.762207,11.463379,2.285156,3.02002,1.523926,5.279297,3.624023,6.775879,6.303223,1.49707,2.678711,2.245605,5.751465,2.245605,9.218262v1.103027c0,3.415039-.748535,6.474121-2.245605,9.178711-1.496582,2.706055-3.755859,4.819824-6.775879,6.342773-3.020996,1.523926-6.842285,2.284668-11.463379,2.284668h-12.370117Z" fill="#fff"/>
    <path d="M402.10791,383.524902v-57.516113h5.90918v32.540039l-1.733398,1.339355c0-3.88623.563965-7.274414,1.693848-10.163574,1.128906-2.888184,2.836426-5.133789,5.121582-6.736816,2.284668-1.601562,5.160645-2.402832,8.626953-2.402832h.31543c5.04248,0,8.86377,1.654297,11.463867,4.963867,2.600098,3.309082,3.899902,7.905762,3.899902,13.788086v24.187988h-5.830566v-25.44873c0-3.729004-1.023926-6.669922-3.072754-8.824219-2.04834-2.15332-4.806152-3.230469-8.272461-3.230469-3.730469,0-6.697266,1.195312-8.90332,3.584961-2.206055,2.390625-3.309082,5.528809-3.309082,9.415039v24.503418h-5.90918Z" fill="#fff"/>
    <path d="M472.466309,384.864258c-3.572754,0-6.710449-.618164-9.415039-1.851562-2.706055-1.233398-4.990723-2.888184-6.85498-4.963867-1.864746-2.074219-3.283203-4.398438-4.254395-6.972656-.972656-2.572754-1.45752-5.200195-1.45752-7.878906v-1.103027c0-2.678711.498535-5.318359,1.49707-7.918457.99707-2.599609,2.442383-4.923828,4.333008-6.972656,1.891113-2.04834,4.188477-3.689453,6.894043-4.924316,2.705078-1.233398,5.791016-1.851562,9.257812-1.851562,3.518555,0,6.630859.618164,9.336426,1.851562,2.70459,1.234863,5.003418,2.875977,6.894043,4.924316,1.891113,2.048828,3.321777,4.373047,4.293945,6.972656.97168,2.600098,1.458008,5.239746,1.458008,7.918457v1.103027c0,2.678711-.473145,5.306152-1.418457,7.878906-.945312,2.574219-2.351562,4.898438-4.215332,6.972656-1.864746,2.075684-4.163574,3.730469-6.894043,4.963867-2.731445,1.233398-5.883301,1.851562-9.45459,1.851562ZM472.466309,379.585449c3.466797,0,6.394531-.774414,8.785156-2.324219,2.389648-1.548828,4.215332-3.597168,5.475586-6.145508,1.260742-2.547363,1.891113-5.370117,1.891113-8.469727,0-3.151855-.644043-6.000488-1.930176-8.548828-1.288086-2.546875-3.139648-4.569824-5.554688-6.066895-2.416504-1.496582-5.306152-2.245117-8.666992-2.245117-3.309082,0-6.172363.748535-8.587891,2.245117-2.416504,1.49707-4.268066,3.52002-5.554688,6.066895-1.287598,2.54834-1.930176,5.396973-1.930176,8.548828,0,3.099609.630371,5.922363,1.890625,8.469727,1.260742,2.54834,3.085449,4.59668,5.476074,6.145508,2.389648,1.549805,5.291016,2.324219,8.706055,2.324219Z" fill="#fff"/>
    <path d="M501.696777,346.336426v-4.490723h28.206543v4.490723h-28.206543ZM523.285156,383.997559c-2.88916,0-5.384766-.420898-7.484863-1.260742-2.101562-.839355-3.730469-2.270996-4.885254-4.293945-1.155762-2.021484-1.73291-4.739258-1.73291-8.154297v-41.600586h5.672363v42.467285c0,2.416504.65625,4.268066,1.969727,5.554199,1.3125,1.288086,3.177734,1.930664,5.594238,1.930664h7.484863v5.357422h-6.618164Z" fill="#fff"/>
    <path d="M561.261719,384.864258c-3.572754,0-6.710449-.618164-9.415039-1.851562-2.706055-1.233398-4.990723-2.888184-6.85498-4.963867-1.864746-2.074219-3.283203-4.398438-4.254395-6.972656-.972656-2.572754-1.45752-5.200195-1.45752-7.878906v-1.103027c0-2.678711.498535-5.318359,1.49707-7.918457.99707-2.599609,2.442383-4.923828,4.333008-6.972656,1.891113-2.04834,4.188477-3.689453,6.894043-4.924316,2.705078-1.233398,5.791016-1.851562,9.257812-1.851562,3.518555,0,6.630859.618164,9.336426,1.851562,2.70459,1.234863,5.003418,2.875977,6.894043,4.924316,1.891113,2.048828,3.321777,4.373047,4.293945,6.972656.97168,2.600098,1.458008,5.239746,1.458008,7.918457v1.103027c0,2.678711-.473145,5.306152-1.418457,7.878906-.945312,2.574219-2.351562,4.898438-4.215332,6.972656-1.864746,2.075684-4.163574,3.730469-6.894043,4.963867-2.731445,1.233398-5.883301,1.851562-9.45459,1.851562ZM561.261719,379.585449c3.466797,0,6.394531-.774414,8.785156-2.324219,2.389648-1.548828,4.215332-3.597168,5.475586-6.145508,1.260742-2.547363,1.891113-5.370117,1.891113-8.469727,0-3.151855-.644043-6.000488-1.930176-8.548828-1.288086-2.546875-3.139648-4.569824-5.554688-6.066895-2.416504-1.496582-5.306152-2.245117-8.666992-2.245117-3.309082,0-6.172363.748535-8.587891,2.245117-2.416504,1.49707-4.268066,3.52002-5.554688,6.066895-1.287598,2.54834-1.930176,5.396973-1.930176,8.548828,0,3.099609.630371,5.922363,1.890625,8.469727,1.260742,2.54834,3.085449,4.59668,5.476074,6.145508,2.389648,1.549805,5.291016,2.324219,8.706055,2.324219Z" fill="#fff"/>
    <path d="M596.953125,383.524902v-41.679199h4.727051v17.412109h-.472656c0-6.092285,1.339355-10.597168,4.018555-13.512207,2.678711-2.915039,6.880371-4.372559,12.605957-4.372559h1.339355v5.357422h-2.442383c-4.518066,0-7.95752,1.169434-10.321289,3.506348-2.36377,2.337402-3.54541,5.765137-3.54541,10.281738v23.006348h-5.90918Z" fill="#fff"/>
    <path d="M647.220215,384.864258c-3.572266,0-6.670898-.618164-9.296875-1.851562-2.626953-1.233398-4.780273-2.888184-6.460938-4.963867-1.681641-2.074219-2.928711-4.398438-3.742188-6.972656-.814941-2.572754-1.221191-5.226074-1.221191-7.95752v-1.103027c0-2.678711.40625-5.304688,1.221191-7.878906.813477-2.573242,2.060547-4.884766,3.742188-6.933594,1.680664-2.04834,3.794434-3.689453,6.342773-4.924316,2.546875-1.233398,5.527344-1.851562,8.942383-1.851562,4.359375,0,7.99707.972656,10.912598,2.915527,2.915039,1.943848,5.107422,4.425293,6.578613,7.445312,1.469727,3.020996,2.206055,6.263672,2.206055,9.730469v3.072754h-37.26709v-4.569824h33.169922l-1.496582,2.285156c0-3.098633-.539551-5.816895-1.615234-8.154785-1.077148-2.336914-2.65332-4.175781-4.727539-5.515137-2.075684-1.339355-4.662109-2.009277-7.760742-2.009277-3.257324,0-5.961914.762207-8.115234,2.284668-2.154297,1.524414-3.769531,3.545898-4.845215,6.066895-1.077637,2.521484-1.615234,5.384766-1.615234,8.587891,0,3.151855.537598,6.027344,1.615234,8.627441,1.075684,2.600098,2.730469,4.662109,4.963379,6.185059,2.231934,1.523926,5.054688,2.284668,8.469727,2.284668,3.624512,0,6.56543-.827148,8.824707-2.481445,2.257812-1.654785,3.649902-3.61084,4.175781-5.870117h5.515137c-.525879,2.784668-1.628906,5.187988-3.309082,7.209473-1.681641,2.022461-3.809082,3.584961-6.381836,4.687988-2.574219,1.103027-5.515137,1.654297-8.824707,1.654297Z" fill="#fff"/>
    <path d="M690.711914,384.62793c-2.941895,0-5.541992-.525879-7.799805-1.575684-2.259277-1.050293-4.005859-2.573242-5.239746-4.569824-1.234863-1.995605-1.851562-4.412109-1.851562-7.248535,0-2.783691.642578-5.146973,1.930664-7.09082,1.286133-1.942871,3.151367-3.427734,5.59375-4.45166,2.442383-1.024414,5.396973-1.536621,8.86377-1.536621h12.212402v4.491211h-12.606445c-3.309082,0-5.84375.80127-7.603027,2.402832-1.760254,1.603027-2.63916,3.690918-2.63916,6.263672,0,2.627441.917969,4.715332,2.757324,6.263672,1.837891,1.550293,4.333496,2.324219,7.484863,2.324219,1.942871,0,3.808105-.354492,5.594238-1.063477,1.785156-.708984,3.282227-1.916504,4.490723-3.624023,1.208008-1.706543,1.864258-4.057617,1.969727-7.051758l1.733398,2.442383c-.210449,3.100098-.945312,5.686523-2.206055,7.760742-1.260254,2.075684-2.967773,3.637695-5.121094,4.687988-2.154297,1.049805-4.675781,1.575684-7.563965,1.575684ZM704.81543,383.524902v-12.527344h-.945801v-14.8125c0-3.098633-.814941-5.475586-2.442383-7.130371-1.628418-1.654297-4.149902-2.481934-7.563477-2.481934-1.575684,0-3.165039.027344-4.76709.079102-1.602539.052734-3.125488.118164-4.569336.196777-1.445312.078613-2.718262.170898-3.821289.275879v-5.200195c1.154785-.104492,2.336426-.209473,3.54541-.314941,1.20752-.10498,2.45459-.169922,3.742188-.197266,1.286621-.025879,2.533691-.039062,3.742676-.039062,4.254395,0,7.682129.525391,10.281738,1.575684,2.600098,1.05127,4.503418,2.692383,5.712402,4.924316,1.20752,2.23291,1.812012,5.1875,1.812012,8.86377v26.788086h-4.727051Z" fill="#fff"/>
    <path d="M720.257812,330.814941v-4.806152h11.976074v4.806152h-11.976074ZM726.324707,383.524902v-57.516113h5.90918v57.516113h-5.90918Z" fill="#fff"/>
    <path d="M784.943359,384.864258c-4.203125,0-7.760742-.814941-10.675781-2.442383-2.915527-1.627441-5.135254-3.833496-6.657715-6.618164-1.524414-2.783691-2.285156-5.830566-2.285156-9.139648h5.751953c0,3.992188,1.233398,7.157715,3.702637,9.494141,2.46875,2.337891,5.856445,3.505859,10.164062,3.505859,2.783203,0,5.212402-.524414,7.288086-1.575684,2.074219-1.049805,3.675781-2.546875,4.806152-4.490723,1.128906-1.942871,1.693848-4.20166,1.693848-6.775879,0-3.939453-1.234863-7.117188-3.703125-9.533691-2.469727-2.415039-5.804688-3.624023-10.006348-3.624023-1.681641,0-3.125488.196777-4.333496.59082-1.208496.394043-2.284668.880371-3.22998,1.45752l-3.230469-5.515137,22.927734-17.806152-.630371-1.260742h-28.915527v-5.121582h34.430664v8.509277l-20.327637,15.836914-3.86084.078613c.945801-.419922,2.021484-.774414,3.230469-1.063477,1.208008-.288086,2.600098-.433594,4.175781-.433594,4.044434,0,7.497559.788086,10.36084,2.36377,2.862305,1.575684,5.054688,3.677246,6.579102,6.303223,1.522461,2.626953,2.284668,5.515137,2.284668,8.666504v1.103027c0,3.046875-.762207,5.90918-2.284668,8.587891-1.524414,2.679199-3.730469,4.833496-6.618652,6.460938-2.88916,1.627441-6.43457,2.442383-10.63623,2.442383Z" fill="#fff"/>
    <path d="M820.162109,383.839844v-58.067383h5.987793v58.067383h-5.987793ZM824.574219,383.839844v-5.515137h15.679199c3.88623,0,7.288086-.630371,10.203125-1.890625,2.915039-1.260742,5.370117-2.980469,7.366699-5.160645,1.995605-2.179199,3.492676-4.687988,4.490723-7.524414.997559-2.836426,1.49707-5.856445,1.49707-9.061035,0-3.309082-.512207-6.381836-1.536133-9.218262-1.024414-2.836426-2.534668-5.330566-4.530273-7.484863-1.99707-2.15332-4.45166-3.807617-7.367188-4.963867-2.915039-1.154785-6.290527-1.733398-10.124023-1.733398h-15.679199v-5.515137h15.048828c5.146973,0,9.612305.788086,13.394043,2.36377s6.933594,3.716797,9.45459,6.421387c2.521484,2.706055,4.385254,5.739258,5.594238,9.100098,1.20752,3.361816,1.812012,6.775879,1.812012,10.242676v1.49707c0,3.415039-.604492,6.802734-1.812012,10.163574-1.208984,3.362305-3.046875,6.421387-5.515137,9.178711-2.469727,2.757812-5.60791,4.963867-9.415527,6.618652-3.809082,1.654297-8.312012,2.481445-13.512207,2.481445h-15.048828Z" fill="#fff"/>
    <path d="M922.902832,384.864258c-4.833008,0-8.902832-.775391-12.212402-2.324219-3.309082-1.548828-5.817871-3.703125-7.523926-6.460449-1.70752-2.757812-2.561035-5.870117-2.561035-9.336914h5.988281c0,2.206055.538086,4.268555,1.615234,6.185059,1.075684,1.917969,2.809082,3.466797,5.199707,4.648438,2.389648,1.182129,5.554688,1.772949,9.494141,1.772949,3.624512,0,6.630859-.524414,9.021484-1.575684,2.389648-1.050293,4.175781-2.468262,5.357422-4.254883,1.182129-1.784668,1.772949-3.781738,1.772949-5.987793,0-2.783691-1.09082-5.10791-3.269531-6.972656-2.180664-1.864258-5.450195-2.980469-9.80957-3.348633l-6.618164-.630371c-4.937988-.419922-8.86377-1.956055-11.778809-4.609375-2.915527-2.651367-4.373047-6.157715-4.373047-10.518066,0-3.309082.788086-6.224609,2.36377-8.745605,1.575684-2.521484,3.821289-4.516602,6.736328-5.987793,2.915527-1.470215,6.421387-2.206055,10.518555-2.206055,4.148438,0,7.70752.748047,10.675781,2.245117,2.966797,1.49707,5.239258,3.559082,6.81543,6.185059,1.575684,2.626953,2.363281,5.672852,2.363281,9.139648h-5.987793c0-2.100098-.472656-4.069824-1.417969-5.90918-.945801-1.837891-2.442383-3.321777-4.491211-4.45166-2.04834-1.128906-4.701172-1.693848-7.95752-1.693848-3.100098,0-5.660645.525391-7.682129,1.575684-2.022461,1.05127-3.519531,2.442383-4.490723,4.175781-.972656,1.733398-1.45752,3.624512-1.45752,5.672852,0,2.574219.917969,4.754395,2.757324,6.539551,1.837891,1.786133,4.491211,2.810547,7.958008,3.072754l6.618164.630371c3.88623.314941,7.208984,1.169434,9.966797,2.560547,2.757324,1.39209,4.871094,3.20459,6.342285,5.436523,1.470215,2.23291,2.206055,4.845215,2.206055,7.839355,0,3.361816-.905762,6.355957-2.718262,8.981934-1.812012,2.626953-4.372559,4.675781-7.681641,6.145508s-7.222656,2.206055-11.739746,2.206055Z" fill="#fff"/>
    <path d="M974.115723,384.706543c-4.990723,0-8.798828-1.614746-11.424316-4.845215-2.627441-3.230469-3.939453-7.733887-3.939453-13.512207v-24.58252h5.830078v25.76416c0,3.624512.958008,6.5,2.875977,8.627441,1.916504,2.127441,4.582031,3.190918,7.99707,3.190918,3.571289,0,6.421387-1.128906,8.54834-3.388184,2.127441-2.257324,3.190918-5.278809,3.190918-9.060547v-25.133789h5.90918v41.758301h-4.727051v-17.412598h.945312c0,3.888184-.55127,7.209473-1.654297,9.967285-1.103027,2.757324-2.757812,4.884766-4.963867,6.381836-2.206055,1.496582-4.990723,2.245117-8.351562,2.245117h-.236328Z" fill="#fff"/>
    <path d="M1010.201172,399.282715v-57.437012h4.727051v17.884766l-1.417969.157715c.209473-4.20166,1.115234-7.74707,2.718262-10.63623,1.601562-2.888184,3.781738-5.082031,6.539551-6.579102,2.757324-1.49707,5.842773-2.245605,9.257812-2.245605,3.04541,0,5.816406.59082,8.312012,1.772949,2.494141,1.181641,4.621582,2.784668,6.381836,4.806152,1.759277,2.022461,3.098633,4.333496,4.018066,6.933105.918457,2.600098,1.378906,5.318359,1.378906,8.154785v1.103027c0,2.836426-.472656,5.554688-1.417969,8.154785-.945801,2.600098-2.29834,4.912109-4.057617,6.933594-1.760742,2.022461-3.887695,3.624023-6.381836,4.806152-2.495605,1.181641-5.29248,1.772461-8.391113,1.772461-3.309082,0-6.342773-.748535-9.100098-2.245605-2.757812-1.496582-4.990723-3.715332-6.697266-6.657715-1.70752-2.940918-2.63916-6.564941-2.796875-10.872559l2.836426,5.90918v28.285156h-5.90918ZM1031.080078,379.664062c3.151855,0,5.856445-.748535,8.115234-2.245117,2.257812-1.49707,3.991211-3.545898,5.200195-6.145508,1.20752-2.600098,1.812012-5.476074,1.812012-8.627441,0-3.256348-.617676-6.158203-1.851562-8.706543-1.234375-2.546875-2.981445-4.569336-5.239258-6.066406-2.259277-1.49707-4.937988-2.245605-8.036621-2.245605-2.836426,0-5.410645.630371-7.721191,1.891113-2.312012,1.260254-4.13623,3.033203-5.476074,5.317871-1.339355,2.285156-2.008789,4.977539-2.008789,8.076172v3.860352c0,2.942383.669434,5.528809,2.008789,7.760742,1.339844,2.233398,3.164062,3.979004,5.476074,5.239746,2.310547,1.260254,4.884766,1.890625,7.721191,1.890625Z" fill="#fff"/>
    <path d="M1065.74707,399.282715v-57.437012h4.727051v17.884766l-1.417969.157715c.209473-4.20166,1.115234-7.74707,2.718262-10.63623,1.601562-2.888184,3.781738-5.082031,6.539551-6.579102,2.757324-1.49707,5.842773-2.245605,9.257812-2.245605,3.04541,0,5.816406.59082,8.312012,1.772949,2.494141,1.181641,4.621582,2.784668,6.381836,4.806152,1.759277,2.022461,3.098633,4.333496,4.018066,6.933105.918457,2.600098,1.378906,5.318359,1.378906,8.154785v1.103027c0,2.836426-.472656,5.554688-1.417969,8.154785-.945801,2.600098-2.29834,4.912109-4.057617,6.933594-1.760742,2.022461-3.887695,3.624023-6.381836,4.806152-2.495605,1.181641-5.29248,1.772461-8.391113,1.772461-3.309082,0-6.342773-.748535-9.100098-2.245605-2.757812-1.496582-4.990723-3.715332-6.697266-6.657715-1.70752-2.940918-2.63916-6.564941-2.796875-10.872559l2.836426,5.90918v28.285156h-5.90918ZM1086.625977,379.664062c3.151855,0,5.856445-.748535,8.115234-2.245117,2.257812-1.49707,3.991211-3.545898,5.200195-6.145508,1.20752-2.600098,1.812012-5.476074,1.812012-8.627441,0-3.256348-.617676-6.158203-1.851562-8.706543-1.234375-2.546875-2.981445-4.569336-5.239258-6.066406-2.259277-1.49707-4.937988-2.245605-8.036621-2.245605-2.836426,0-5.410645.630371-7.721191,1.891113-2.312012,1.260254-4.13623,3.033203-5.476074,5.317871-1.339355,2.285156-2.008789,4.977539-2.008789,8.076172v3.860352c0,2.942383.669434,5.528809,2.008789,7.760742,1.339844,2.233398,3.164062,3.979004,5.476074,5.239746,2.310547,1.260254,4.884766,1.890625,7.721191,1.890625Z" fill="#fff"/>
    <path d="M1115.620605,330.814941v-4.806152h11.976074v4.806152h-11.976074ZM1121.6875,383.524902v-57.516113h5.90918v57.516113h-5.90918Z" fill="#fff"/>
    <path d="M1161.948242,384.864258c-3.572266,0-6.670898-.618164-9.296875-1.851562-2.626953-1.233398-4.780273-2.888184-6.460938-4.963867-1.681641-2.074219-2.928711-4.398438-3.742188-6.972656-.814941-2.572754-1.221191-5.226074-1.221191-7.95752v-1.103027c0-2.678711.40625-5.304688,1.221191-7.878906.813477-2.573242,2.060547-4.884766,3.742188-6.933594,1.680664-2.04834,3.794434-3.689453,6.342773-4.924316,2.546875-1.233398,5.527344-1.851562,8.942383-1.851562,4.359375,0,7.99707.972656,10.912598,2.915527,2.915039,1.943848,5.107422,4.425293,6.578613,7.445312,1.469727,3.020996,2.206055,6.263672,2.206055,9.730469v3.072754h-37.26709v-4.569824h33.169922l-1.496582,2.285156c0-3.098633-.539551-5.816895-1.615234-8.154785-1.077148-2.336914-2.65332-4.175781-4.727539-5.515137-2.075684-1.339355-4.662109-2.009277-7.760742-2.009277-3.257324,0-5.961914.762207-8.115234,2.284668-2.154297,1.524414-3.769531,3.545898-4.845215,6.066895-1.077637,2.521484-1.615234,5.384766-1.615234,8.587891,0,3.151855.537598,6.027344,1.615234,8.627441,1.075684,2.600098,2.730469,4.662109,4.963379,6.185059,2.231934,1.523926,5.054688,2.284668,8.469727,2.284668,3.624512,0,6.56543-.827148,8.824707-2.481445,2.257812-1.654785,3.649902-3.61084,4.175781-5.870117h5.515137c-.525879,2.784668-1.628906,5.187988-3.309082,7.209473-1.681641,2.022461-3.809082,3.584961-6.381836,4.687988-2.574219,1.103027-5.515137,1.654297-8.824707,1.654297Z" fill="#fff"/>
    <path d="M1194.17334,383.524902v-41.758301h4.727051v17.570312h-.945312c0-3.833984.538086-7.143066,1.615234-9.927734,1.076172-2.783203,2.690918-4.950195,4.845703-6.5,2.152832-1.548828,4.884766-2.324219,8.193848-2.324219h.236328c3.309082,0,6.039551.762207,8.194336,2.284668,2.152832,1.524414,3.754395,3.677246,4.806152,6.460938,1.049805,2.784668,1.575684,6.119629,1.575684,10.006348h-1.891113c0-3.833984.538086-7.143066,1.615234-9.927734,1.076172-2.783203,2.70459-4.950195,4.884766-6.5,2.179199-1.548828,4.924316-2.324219,8.233398-2.324219h.236328c3.30957,0,6.053223.762207,8.233887,2.284668,2.178711,1.524414,3.807617,3.677246,4.884766,6.460938,1.075684,2.784668,1.615234,6.119629,1.615234,10.006348v24.187988h-5.90918v-25.527832c0-3.675781-.894043-6.59082-2.679199-8.745117-1.786133-2.15332-4.360352-3.230469-7.721191-3.230469-3.466797,0-6.211914,1.116699-8.233398,3.348633-2.022461,2.23291-3.033203,5.239258-3.033203,9.020996v25.133789h-5.90918v-25.527832c0-3.675781-.894043-6.59082-2.678711-8.745117-1.786621-2.15332-4.36084-3.230469-7.72168-3.230469-3.466797,0-6.211914,1.116699-8.233398,3.348633-2.022461,2.23291-3.033203,5.239258-3.033203,9.020996v25.133789h-5.90918Z" fill="#fff"/>
    <path d="M1289.034668,384.864258c-3.572266,0-6.670898-.618164-9.296875-1.851562-2.626953-1.233398-4.780273-2.888184-6.460938-4.963867-1.681641-2.074219-2.928711-4.398438-3.742188-6.972656-.814941-2.572754-1.221191-5.226074-1.221191-7.95752v-1.103027c0-2.678711.40625-5.304688,1.221191-7.878906.813477-2.573242,2.060547-4.884766,3.742188-6.933594,1.680664-2.04834,3.794434-3.689453,6.342773-4.924316,2.546875-1.233398,5.527344-1.851562,8.942383-1.851562,4.359375,0,7.99707.972656,10.912598,2.915527,2.915039,1.943848,5.107422,4.425293,6.578613,7.445312,1.469727,3.020996,2.206055,6.263672,2.206055,9.730469v3.072754h-37.26709v-4.569824h33.169922l-1.496582,2.285156c0-3.098633-.539551-5.816895-1.615234-8.154785-1.077148-2.336914-2.65332-4.175781-4.727539-5.515137-2.075684-1.339355-4.662109-2.009277-7.760742-2.009277-3.257324,0-5.961914.762207-8.115234,2.284668-2.154297,1.524414-3.769531,3.545898-4.845215,6.066895-1.077637,2.521484-1.615234,5.384766-1.615234,8.587891,0,3.151855.537598,6.027344,1.615234,8.627441,1.075684,2.600098,2.730469,4.662109,4.963379,6.185059,2.231934,1.523926,5.054688,2.284668,8.469727,2.284668,3.624512,0,6.56543-.827148,8.824707-2.481445,2.257812-1.654785,3.649902-3.61084,4.175781-5.870117h5.515137c-.525879,2.784668-1.628906,5.187988-3.309082,7.209473-1.681641,2.022461-3.809082,3.584961-6.381836,4.687988-2.574219,1.103027-5.515137,1.654297-8.824707,1.654297Z" fill="#fff"/>
    <path d="M1321.259766,383.524902v-41.679199h4.727051v17.491211h-.945312c0-3.886719.577637-7.22168,1.733398-10.006348,1.154785-2.783691,2.888184-4.936523,5.200195-6.460938,2.310547-1.522461,5.226074-2.284668,8.745605-2.284668h.236328c5.251465,0,9.165527,1.64209,11.739258,4.924316,2.573242,3.283203,3.86084,7.892578,3.86084,13.827637v24.187988h-5.830566v-25.44873c0-3.624512-.998047-6.539551-2.993652-8.745605-1.99707-2.206055-4.780273-3.309082-8.351562-3.309082-3.677246,0-6.631836,1.14209-8.86377,3.427246-2.233398,2.284668-3.348633,5.29248-3.348633,9.021484v25.054688h-5.90918Z" fill="#fff"/>
    <path d="M1366.484375,346.336426v-4.490723h28.206543v4.490723h-28.206543ZM1388.072754,383.997559c-2.88916,0-5.384766-.420898-7.484863-1.260742-2.101562-.839355-3.730469-2.270996-4.885254-4.293945-1.155762-2.021484-1.73291-4.739258-1.73291-8.154297v-41.600586h5.672363v42.467285c0,2.416504.65625,4.268066,1.969727,5.554199,1.3125,1.288086,3.177734,1.930664,5.594238,1.930664h7.484863v5.357422h-6.618164Z" fill="#fff"/>
    <path d="M1429.121582,383.524902v-57.516113h7.800293l18.121094,39.788574h1.418457l18.04248-39.788574h7.958008v57.516113h-5.988281v-50.818848l.472656.078613-17.490723,38.606934h-7.878906l-17.570312-38.606934.630371-.078613v50.818848h-5.515137Z" fill="#fff"/>
    <path d="M1519.413574,384.864258c-3.572754,0-6.710449-.618164-9.415039-1.851562-2.706055-1.233398-4.990723-2.888184-6.85498-4.963867-1.864746-2.074219-3.283203-4.398438-4.254395-6.972656-.972656-2.572754-1.45752-5.200195-1.45752-7.878906v-1.103027c0-2.678711.498535-5.318359,1.49707-7.918457.99707-2.599609,2.442383-4.923828,4.333008-6.972656,1.891113-2.04834,4.188477-3.689453,6.894043-4.924316,2.705078-1.233398,5.791016-1.851562,9.257812-1.851562,3.518555,0,6.630859.618164,9.336426,1.851562,2.70459,1.234863,5.003418,2.875977,6.894043,4.924316,1.891113,2.048828,3.321777,4.373047,4.293945,6.972656.97168,2.600098,1.458008,5.239746,1.458008,7.918457v1.103027c0,2.678711-.473145,5.306152-1.418457,7.878906-.945312,2.574219-2.351562,4.898438-4.215332,6.972656-1.864746,2.075684-4.163574,3.730469-6.894043,4.963867-2.731445,1.233398-5.883301,1.851562-9.45459,1.851562ZM1519.413574,379.585449c3.466797,0,6.394531-.774414,8.785156-2.324219,2.389648-1.548828,4.215332-3.597168,5.475586-6.145508,1.260742-2.547363,1.891113-5.370117,1.891113-8.469727,0-3.151855-.644043-6.000488-1.930176-8.548828-1.288086-2.546875-3.139648-4.569824-5.554688-6.066895-2.416504-1.496582-5.306152-2.245117-8.666992-2.245117-3.309082,0-6.172363.748535-8.587891,2.245117-2.416504,1.49707-4.268066,3.52002-5.554688,6.066895-1.287598,2.54834-1.930176,5.396973-1.930176,8.548828,0,3.099609.630371,5.922363,1.890625,8.469727,1.260742,2.54834,3.085449,4.59668,5.476074,6.145508,2.389648,1.549805,5.291016,2.324219,8.706055,2.324219Z" fill="#fff"/>
    <path d="M1572.675293,384.864258c-3.519531,0-6.578613-.618164-9.178711-1.851562s-4.76709-2.915039-6.5-5.04248c-1.733398-2.127441-3.033691-4.477539-3.900391-7.051758-.866699-2.572754-1.299805-5.172852-1.299805-7.799805v-1.103027c0-2.678711.433105-5.291504,1.299805-7.839844.866699-2.546875,2.166992-4.857422,3.900391-6.933105,1.73291-2.074219,3.899902-3.729004,6.5-4.963867,2.600098-1.233398,5.605957-1.851562,9.020996-1.851562,3.466797,0,6.551758.630371,9.257812,1.891113,2.70459,1.260742,4.897461,3.046875,6.579102,5.357422,1.680176,2.312012,2.678711,5.04248,2.993652,8.194336h-5.672852c-.472656-2.888184-1.825684-5.291504-4.057617-7.209473-2.23291-1.916504-5.266113-2.875488-9.100098-2.875488-3.309082,0-6.054199.748535-8.233398,2.245117-2.180176,1.49707-3.821289,3.52002-4.924316,6.066895-1.103027,2.54834-1.654297,5.371094-1.654297,8.469727,0,3.046875.55127,5.870117,1.654297,8.469727,1.103027,2.600098,2.757812,4.675781,4.963867,6.224609,2.206055,1.549805,4.989746,2.324219,8.351562,2.324219,2.573242,0,4.818359-.458984,6.736328-1.378906,1.916992-.918457,3.466797-2.166504,4.648926-3.742188,1.181641-1.576172,1.876953-3.309082,2.087891-5.200195h5.672852c-.210938,3.151367-1.195801,5.896973-2.95459,8.233398-1.760742,2.337891-4.032227,4.149902-6.81543,5.436523-2.784668,1.286621-5.90918,1.930176-9.375977,1.930176Z" fill="#fff"/>
    <path d="M1604.348633,383.524902v-57.516113h5.90918v57.516113h-5.90918ZM1632.712402,383.524902l-16.781738-19.539551h-6.775879l19.775879-22.139648h6.303223l-17.727539,19.775879.394043-3.230469,21.745605,25.133789h-6.933594Z" fill="#fff"/>
    <path d="M1663.203613,384.706543c-4.990723,0-8.798828-1.614746-11.424316-4.845215-2.627441-3.230469-3.939453-7.733887-3.939453-13.512207v-24.58252h5.830078v25.76416c0,3.624512.958008,6.5,2.875977,8.627441,1.916504,2.127441,4.582031,3.190918,7.99707,3.190918,3.571289,0,6.421387-1.128906,8.54834-3.388184,2.127441-2.257324,3.190918-5.278809,3.190918-9.060547v-25.133789h5.90918v41.758301h-4.727051v-17.412598h.945312c0,3.888184-.55127,7.209473-1.654297,9.967285-1.103027,2.757324-2.757812,4.884766-4.963867,6.381836-2.206055,1.496582-4.990723,2.245117-8.351562,2.245117h-.236328Z" fill="#fff"/>
    <path d="M1699.289062,399.282715v-57.437012h4.727051v17.884766l-1.417969.157715c.209473-4.20166,1.115234-7.74707,2.718262-10.63623,1.601562-2.888184,3.781738-5.082031,6.539551-6.579102,2.757324-1.49707,5.842773-2.245605,9.257812-2.245605,3.04541,0,5.816406.59082,8.312012,1.772949,2.494141,1.181641,4.621582,2.784668,6.381836,4.806152,1.759277,2.022461,3.098633,4.333496,4.018066,6.933105.918457,2.600098,1.378906,5.318359,1.378906,8.154785v1.103027c0,2.836426-.472656,5.554688-1.417969,8.154785-.945801,2.600098-2.29834,4.912109-4.057617,6.933594-1.760742,2.022461-3.887695,3.624023-6.381836,4.806152-2.495605,1.181641-5.29248,1.772461-8.391113,1.772461-3.309082,0-6.342773-.748535-9.100098-2.245605-2.757812-1.496582-4.990723-3.715332-6.697266-6.657715-1.70752-2.940918-2.63916-6.564941-2.796875-10.872559l2.836426,5.90918v28.285156h-5.90918ZM1720.167969,379.664062c3.151855,0,5.856445-.748535,8.115234-2.245117,2.257812-1.49707,3.991211-3.545898,5.200195-6.145508,1.20752-2.600098,1.812012-5.476074,1.812012-8.627441,0-3.256348-.617676-6.158203-1.851562-8.706543-1.234375-2.546875-2.981445-4.569336-5.239258-6.066406-2.259277-1.49707-4.937988-2.245605-8.036621-2.245605-2.836426,0-5.410645.630371-7.721191,1.891113-2.312012,1.260254-4.13623,3.033203-5.476074,5.317871-1.339355,2.285156-2.008789,4.977539-2.008789,8.076172v3.860352c0,2.942383.669434,5.528809,2.008789,7.760742,1.339844,2.233398,3.164062,3.979004,5.476074,5.239746,2.310547,1.260254,4.884766,1.890625,7.721191,1.890625Z" fill="#fff"/>
    <path d="M1767.992676,384.706543c-5.357422,0-9.481934-1.169434-12.370117-3.505859-2.88916-2.336426-4.360352-5.476074-4.412109-9.415527h5.515625c.104492,1.99707,1.010254,3.809082,2.717773,5.436523,1.706543,1.628906,4.556641,2.442383,8.548828,2.442383,3.729004,0,6.525879-.773926,8.391113-2.324219,1.86377-1.54834,2.796875-3.427246,2.796875-5.633301,0-2.04834-.775391-3.636719-2.324219-4.766602-1.549805-1.128906-3.79541-1.851562-6.736328-2.166992l-4.727539-.472656c-3.781738-.419922-6.842285-1.587891-9.178711-3.505859-2.337891-1.916992-3.506348-4.556152-3.506348-7.918457,0-2.468262.630371-4.621582,1.891113-6.460449,1.260742-1.838379,3.033203-3.27002,5.318359-4.294434,2.284668-1.023926,4.975586-1.536133,8.075684-1.536133,4.463867,0,8.101562,1.05127,10.912109,3.151367,2.80957,2.101562,4.241211,5.095703,4.293945,8.981934h-5.515137c-.052734-1.995605-.893555-3.675781-2.520996-5.04248-1.628906-1.365234-4.018555-2.04834-7.169922-2.04834-3.257324,0-5.686523.708984-7.288086,2.127441-1.602539,1.417969-2.402832,3.151367-2.402832,5.199707,0,1.733398.603027,3.165527,1.812012,4.294434,1.20752,1.129883,3.098633,1.825684,5.672852,2.087891l4.727051.472656c4.20166.472656,7.629395,1.681641,10.282227,3.624023,2.651855,1.943848,3.979004,4.727539,3.979004,8.351562,0,2.469727-.696777,4.687988-2.087891,6.657715-1.392578,1.969727-3.348633,3.506348-5.870117,4.609375-2.520996,1.103027-5.463379,1.654297-8.824219,1.654297Z" fill="#fff"/>
  </g>
</svg>