<?xml version="1.0" encoding="UTF-8"?><svg id="Layer_1" xmlns="http://www.w3.org/2000/svg" viewBox="0 0 1920 1080"><g id="Icon"><path d="M489.2,489.76c-30.31-1.6-67.67.83-96.69,11.71-8.8,3.3-27.47,12.05-9.47,21.02,26.49,13.21,61.74,10.27,87.65,27.17,22.26,14.51,18.13,41.47,2.35,60.26-32.56,38.77-106,46.48-149.48,39.12-8.98-1.52-18.37-3.8-26.61-8.26v8.97c0,.5.82,3.71,1.05,4.46,5.41,17.84,25.67,19.2,39.27,20.27,36.78,2.9,77.54,2.16,114.41.42,18.33-.86,48.83,1.11,52.58-26.91l.03-156.64c-.25-1.11-13.3-1.49-15.07-1.58Z" fill="#f1f2f2"/><path d="M302.69,628.1c25.19,1.45,53.38-3.2,77.63-11,12.2-3.92,36.87-13.48,44.58-25.39,5.04-7.78.68-10.74-5.26-13.42-14.78-6.66-33.51-9.24-49.14-13.45-20.81-5.62-58.51-15.46-49.14-50.47,9.02-33.72,60.06-42.12,85.37-44.3,20.34-1.75,43.63-1.59,63.85,1.36,10.87,1.59,21.79,4.37,31.81,9.58-5.78-24.67-29.53-28.94-48.11-31.08-11.43-1.32-22.74-1.43-34.2-1.74-25.17-.68-52.25-1.34-77.26,1.74-17.79,2.19-37.1,7.66-44.2,29.33-2.53,7.71-1.6,16.55-1.66,24.74-.03,4.08,0,8.1,0,12.22-.06,36.99.18,74.04-.23,110.99,1.71.4,4.13.78,5.95.88Z" fill="#f1f2f2"/><path d="M456.88,442.93c5.72.69,11.44,1.85,17.1,3.06.63.28.53-.66.55-1.09.49-8.58,0-18.4,0-27.14,0-2.24-3.03-4.66-4.57-5.55-10.47-6.06-31.37-7.2-43.18-7.78-21.87-1.07-44.63-1.49-66.48.86-7.08.76-26.9,3.57-31.94,8.76-.52.54-2.05,2.66-2.05,3.27v28.67l16.16-3.06c37.46-2.13,77.06-4.53,114.42,0ZM339.3,413.61l7.06-1.75.38,25.83-7.43.87v-24.95Z" fill="#f1f2f2"/></g><text transform="translate(543.5 552.36)" fill="#f1f2f2" font-family="SpaceGrotesk-SemiBold, &apos;Space Grotesk&apos;" font-size="190" font-weight="600"><tspan x="0" y="0">SuppVisuals</tspan></text><text transform="translate(549.36 673.19)" fill="#d1d3d4" font-family="Sora-Light, Sora" font-size="58" font-weight="300"><tspan x="0" y="0">Photoreal </tspan><tspan x="307.98" y="0">3</tspan><tspan x="344.52" y="0">D Supplement Mockups</tspan></text></svg>